<?xml version="1.0" encoding="UTF-8" standalone="no"?>
<svg xmlns:dc="http://purl.org/dc/elements/1.1/" xmlns:cc="http://creativecommons.org/ns#" xmlns:rdf="http://www.w3.org/1999/02/22-rdf-syntax-ns#" xmlns:svg="http://www.w3.org/2000/svg" xmlns="http://www.w3.org/2000/svg" xmlns:sodipodi="http://sodipodi.sourceforge.net/DTD/sodipodi-0.dtd" xmlns:inkscape="http://www.inkscape.org/namespaces/inkscape" viewBox="0 0 325.07001 194.17" version="1.1" id="svg31" width="325.07001" height="194.17">
  <metadata id="metadata35">
    
  </metadata>
  
  <defs id="defs4">
    <style id="style2">.cls-1{fill:#010303;}.cls-2{fill:#00a0d4;}.cls-3{fill:#a99a83;}.cls-4{fill:#cfd3d8;}</style>
  </defs>
  <title id="title6">Asset 1</title>
  <g id="Layer_2" transform="translate(0,0.01)">
    <g id="layer_1-2">
      <path id="path6" class="cls-1" d="m 212,0 h 0.57 c 0.5,0.28 1.11,0.77 0.85,1.42 -0.26,0.65 -0.95,0.85 -1.28,1.39 -2.58,4.58 -4.42,9.53 -7,14.13 -0.21,0.42 -0.41,0.84 -0.61,1.27 a 18.81,18.81 0 0 1 1.7,1.75 13.64,13.64 0 0 1 5.49,1.68 c 1.47,1.3 1.88,3.37 2.09,5.23 a 29,29 0 0 1 -0.3,7.89 5.92,5.92 0 0 1 -3,3.91 5.35,5.35 0 0 1 -1.88,2.33 13.36,13.36 0 0 1 -6.39,1.14 41.41,41.41 0 0 1 -7.06,-0.31 c -2.62,-0.36 -5.36,-0.8 -7.59,-2.32 a 7.41,7.41 0 0 1 -2,-2.41 c 0.38,2.5 0.92,5 1.47,7.45 2.13,-0.37 4.27,-0.74 6.41,-1 a 77.85,77.85 0 0 1 16.26,-0.2 c 0.27,-0.44 0.37,-1.09 0.91,-1.28 0.89,-0.36 1.85,-0.5 2.77,-0.78 a 8.43,8.43 0 0 1 0,-2.17 10.83,10.83 0 0 1 3.15,-1.19 c 3.33,-0.8 6.6,-1.8 10,-2.36 5.34,-0.8 10.72,-1.83 16.14,-1.47 0.42,0 1,0.16 1.08,0.69 0.41,2.17 0.17,4.39 0.41,6.57 0.52,11.63 1,23.29 2.41,34.86 a 44.61,44.61 0 0 0 5.6,-0.39 c 3.43,-0.24 6.87,-0.25 10.3,-0.35 0.47,0 1.28,0 1.19,0.69 0,3.85 -0.06,7.7 0.11,11.54 0,5.05 0.21,10.12 -0.2,15.16 a 9.54,9.54 0 0 1 -3.19,0.57 c 0.12,0.91 0.19,1.83 0.25,2.75 -3.8,0.72 -7.64,1.18 -11.48,1.58 -6.6,0.79 -13.22,1.25 -19.86,1.63 -4.15,0.13 -8.23,1.1 -12.39,1.07 A 32.78,32.78 0 0 1 215,102.6 c -2.85,0.17 -5.68,0.46 -8.52,0.76 a 79.46,79.46 0 0 1 -15.34,-0.71 c -1.61,-0.22 -3.15,0.41 -4.69,0.74 -4.47,1.22 -9.08,1.76 -13.63,2.55 -2.81,0.28 -5.62,0.64 -8.44,0.79 -1.68,-7.26 -1.39,-14.8 -2.79,-22.1 -1,1.57 -2,3.16 -2.81,4.82 a 7,7 0 0 1 -1.24,1.89 c -0.61,0.41 -1.18,-0.25 -1.7,-0.51 -0.42,1.22 -0.61,2.58 -1.54,3.55 a 67.9,67.9 0 0 1 -5.1,-6.7 c -0.17,2.52 -0.36,5 -0.48,7.57 -0.27,2.12 0,4.32 -0.67,6.38 -0.82,0.08 -1.65,0.11 -2.47,0.11 a 14.66,14.66 0 0 1 -0.54,3.35 c -2.23,0.32 -4.45,-0.18 -6.67,-0.31 -4.43,-0.25 -8.86,-0.7 -13.29,-1 a 20.7,20.7 0 0 0 -3.51,-0.18 11.92,11.92 0 0 0 -2.88,1.56 c -2.28,1.47 -4.87,2.34 -7.27,3.59 a 24.59,24.59 0 0 1 -7.75,2.67 68.07,68.07 0 0 0 -1.41,-7.4 c -0.92,-3.79 -1.2,-7.71 -2.29,-11.45 -1.5,0.41 -3,0.88 -4.47,1.31 -0.39,4.56 0.11,9.14 0.12,13.71 H 93.3 c 0,0.88 -0.12,1.76 -0.24,2.63 a 8.62,8.62 0 0 1 -1.89,0 130.45,130.45 0 0 1 -23.09,-3.22 3.54,3.54 0 0 1 -1.37,-0.67 c -0.83,-5 0.36,-10 0.7,-14.93 0.08,-3 0.71,-6 1,-9.07 0.86,-5.26 1.43,-10.57 2.38,-15.82 0.88,-4.5 1.87,-9 3.11,-13.39 0.69,-2.6 1.45,-5.19 2,-7.83 a 21.55,21.55 0 0 0 -4.45,0.77 c 0.17,1 0.37,2.08 0.57,3.12 a 57.44,57.44 0 0 1 -5.86,0.84 109.24,109.24 0 0 0 -14,2.7 72.25,72.25 0 0 0 -7,2.22 17.94,17.94 0 0 0 -0.1,5.55 c 4.13,-1.24 8.34,-2.18 12.47,-3.39 a 13.83,13.83 0 0 1 4.26,-0.8 c 0.74,1.57 1.09,3.29 1.7,4.91 1.38,3.77 2.41,7.66 3.42,11.55 a 41.51,41.51 0 0 1 1.62,6.63 c -0.78,0.35 -1.58,0.67 -2.39,1 a 18.2,18.2 0 0 1 1,2.74 c -4.68,1.57 -9.5,2.7 -14.08,4.57 -1.79,0.76 -3.75,1.23 -5.34,2.39 l -0.2,0.32 a 25.18,25.18 0 0 0 0.2,5.05 c 0.3,3.19 0.66,6.38 1.11,9.55 0.53,3 0.71,6 1.11,8.92 -1.44,0.39 -2.91,0.72 -4.37,1.06 0.12,1 0.29,1.95 0.43,2.92 A 59.46,59.46 0 0 1 34.65,120 c -3.59,0.29 -7.18,0.73 -10.79,0.85 -3,0.25 -6,-0.24 -9,0 A 17,17 0 0 1 10.92,120.69 10.32,10.32 0 0 1 10.24,119 C 8.9,113.25 7.24,107.57 6.12,101.76 5,95.95 4,90.38 3.1,84.64 2.45,80.31 1.71,75.99 1.4,71.64 1.13,67.66 0.69,63.73 0.62,59.77 0.29,54 0.18,48.18 0,42.39 V 40 c 0.07,-2.06 0.13,-4.12 0.19,-6.18 a 7.79,7.79 0 0 1 0.72,-3 c 0.86,-0.81 2.16,-0.73 3.2,-1.2 0.2,-1 0.05,-2.22 0.86,-3 a 13.08,13.08 0 0 1 4.11,-2.43 c 3.73,-1.56 7.46,-3.14 11.32,-4.35 2.6,-0.84 5.1,-1.72 7.7,-2.4 3.24,-0.77 6.47,-1.59 9.75,-2.2 7.36,-1.39 14.74,-2.65 22.18,-3.48 4.21,-0.32 8.45,-1 12.67,-0.58 a 9.69,9.69 0 0 1 0.52,2.4 c 0.29,2.72 0.56,5.43 0.84,8.15 q 1.62,11.21 2.23,22.54 c 0.87,-2.24 1.21,-4.65 2.06,-6.9 0.58,-0.94 1.94,-0.36 2.79,-0.8 0.37,-1 0.36,-2.22 1.26,-2.92 A 43.16,43.16 0 0 1 87.69,33.08 73.19,73.19 0 0 1 97,33 c 1.76,0.06 3.51,0.31 5.27,0.37 3.55,0.19 7.05,0.86 10.58,1.34 a 2.17,2.17 0 0 1 1.37,0.6 12.92,12.92 0 0 1 1.67,3.09 c 1.27,-0.33 2.54,-0.67 3.78,-1.1 0.3,-0.93 0.27,-2.35 1.44,-2.64 a 60.86,60.86 0 0 1 9.31,-1.8 66.64,66.64 0 0 1 12.32,-0.26 1.34,1.34 0 0 1 1,0.51 26.46,26.46 0 0 1 1.79,2.8 c 1.86,3 3.87,5.93 5.89,8.83 1.45,-3.39 2.22,-7 3.55,-10.45 A 33.71,33.71 0 0 1 158.91,34.1 6.94,6.94 0 0 0 160,32 c 1.44,0 2.89,0 4.33,-0.13 2.6,-0.22 5.19,0.16 7.79,0.12 a 117.81,117.81 0 0 1 12.21,1.16 20.28,20.28 0 0 1 0.83,-7.78 5.19,5.19 0 0 1 1.55,-2.76 15.47,15.47 0 0 1 3.24,-1.46 13.12,13.12 0 0 1 5.35,-1 c 0.52,-0.62 1.06,-1.24 1.62,-1.83 -2.49,-4.53 -4.66,-9.24 -6.9,-13.89 -0.33,-0.76 -1.21,-1.28 -1.18,-2.16 a 1.71,1.71 0 0 1 1.89,-0.78 c 0.61,0.24 0.24,1 0.43,1.53 2,5 4.75,9.74 6.95,14.7 a 9.91,9.91 0 0 1 5.21,-0.09 c 2.78,-4.84 5,-10 7.43,-15 0.48,-0.85 0.44,-2 1.29,-2.64 z"/>
      <path id="path10" class="cls-2" d="M 56.79,13.95 A 98.13,98.13 0 0 1 71.4,12.7 c 0.24,2.38 0.5,4.76 0.71,7.14 0.85,6.53 1.82,13.06 2.25,19.64 0.13,1.36 0.14,2.74 0.34,4.1 -4.52,0.84 -9.12,1.14 -13.67,1.8 a 116.07,116.07 0 0 0 -12.57,2.82 28.84,28.84 0 0 0 -4.39,1.48 1.41,1.41 0 0 0 -0.65,0.54 13.88,13.88 0 0 0 -0.33,4.06 c -0.07,2.34 -0.1,4.68 0,7 0,0.46 0.16,1.07 0.67,1.22 A 9,9 0 0 0 46.84,62 c 2.2,-0.67 4.46,-1.13 6.71,-1.64 2.25,-0.51 4.63,-1.39 7,-1.92 a 49.52,49.52 0 0 0 1.58,4.84 70.66,70.66 0 0 1 2.64,8.84 c 0.56,2.06 1.22,4.11 1.79,6.17 -5.77,2 -11.67,3.55 -17.34,5.82 -0.91,0.38 -1.86,0.66 -2.76,1.06 a 2.34,2.34 0 0 0 -1.09,2.29 c -0.09,8.47 1.32,16.85 2.35,25.24 -3.86,0.63 -7.63,1.78 -11.54,2.09 -2.93,0.26 -5.85,0.63 -8.79,0.7 -3.8,0 -7.6,0.39 -11.4,0 C 14.17,109.41 12.89,103.19 11.55,97 11.1,95.08 10.89,93.11 10.34,91.22 9.08,87 9,82.63 8.22,78.36 8,76 7.59,73.66 7.34,71.3 6.9,66.8 6.41,62.3 6.17,57.79 A 167.23,167.23 0 0 1 5.83,38.95 c 0,-3.35 0.09,-6.71 0.4,-10.05 0.12,-1.29 1.52,-1.77 2.49,-2.31 A 109.48,109.48 0 0 1 40.23,16.72 Q 48.45,15 56.79,13.95 Z"/>
      <path id="path12" class="cls-3" d="m 197.13,19.77 c 1.31,-1.5 3.5,-1.54 5.32,-1.23 a 4.61,4.61 0 0 1 2.41,1.46 c -2.57,-0.11 -5.15,-0.09 -7.73,-0.23 z"/>
      <path id="path14" class="cls-3" d="m 195.1,21.34 a 59.29,59.29 0 0 1 8.4,-0.2 23.86,23.86 0 0 1 5.69,0.83 4.07,4.07 0 0 1 2.59,1.9 c 1.08,2.44 0.83,5.17 0.85,7.77 -0.08,1.57 -0.21,3.34 -1.3,4.57 -2.33,2 -5.55,2.72 -8.58,2.83 a 28.78,28.78 0 0 1 -11.33,-1.44 5,5 0 0 1 -2.58,-1.6 5.69,5.69 0 0 1 -0.75,-3.1 27,27 0 0 1 0.4,-7.05 5.05,5.05 0 0 1 2,-3.48 10.94,10.94 0 0 1 4.65,-1 z"/>
      <path id="path16" class="cls-1" d="m 196.77,22.45 a 30.84,30.84 0 0 1 8,0.35 2.94,2.94 0 0 1 2.23,2.82 31.71,31.71 0 0 1 -0.76,9.59 c -0.34,1.32 -1.79,1.85 -3,2.06 -3.88,0.53 -8,0.38 -11.58,-1.41 -1.33,-0.69 -1.71,-2.35 -1.58,-3.73 0.19,-2.17 -0.13,-4.42 0.64,-6.5 a 4.08,4.08 0 0 1 2.05,-2.46 13,13 0 0 1 4,-0.74 z"/>
      <path id="path18" class="cls-4" d="m 196.38,23.62 a 22,22 0 0 1 7.83,0.1 c 0.46,0.12 1,0.22 1.27,0.68 a 7.72,7.72 0 0 1 0.64,4.25 18.73,18.73 0 0 1 -1,6.56 c -0.44,1 -1.66,1 -2.58,1.14 a 17.76,17.76 0 0 1 -6.82,-0.17 18,18 0 0 1 -3.63,-1.4 c -1.09,-0.84 -0.89,-2.41 -0.93,-3.63 0.2,-2 -0.13,-4.12 1,-5.85 1,-1.3 2.74,-1.41 4.22,-1.68 z"/>
      <path id="path20" class="cls-1" d="m 208.82,24.68 a 1.57,1.57 0 0 1 2.27,1.72 c -0.14,1.44 -2.54,1.52 -3,0.23 a 1.58,1.58 0 0 1 0.73,-1.95 z"/>
      <path id="path22" class="cls-3" d="m 209.27,25.33 c 0.29,-0.09 0.56,0.11 0.84,0.17 l 0.27,0.65 -0.32,0.6 -1.17,-0.28 c 0.11,-0.4 -0.02,-0.9 0.38,-1.14 z"/>
      <path id="path24" class="cls-1" d="m 297.86,27.85 c 0.43,-0.74 0.88,-1.48 1.35,-2.2 1.44,-0.12 2.58,0.88 3.88,1.33 2.78,1.06 5.51,2.26 8.36,3.12 1.88,0.56 3.66,1.39 5.54,1.95 2.69,0.81 5.46,1.38 8.08,2.43 v 0.77 c -1.68,3.05 -2.77,6.41 -4.72,9.33 -2.73,3.91 -5.75,7.61 -8.83,11.26 a 42,42 0 0 1 -3.64,4.09 68.86,68.86 0 0 1 -6,5.62 c -0.61,0.42 -0.58,1.22 -0.7,1.87 a 124.5,124.5 0 0 0 0.3,18.24 q 0.27,5.64 1,11.25 a 12.5,12.5 0 0 1 0.07,2.69 13.8,13.8 0 0 1 -3.3,0.59 c -0.08,0.92 0.52,2.28 -0.42,2.9 -4.48,1.22 -9.18,1 -13.76,1.53 -3.1,0.21 -6.21,0 -9.3,0.18 -2.35,0 -4.7,-0.13 -7.05,-0.15 -1.1,0 -1.27,-1.32 -1.3,-2.15 0,-3.1 -0.14,-6.2 -0.15,-9.3 0,-2.6 -0.19,-5.19 -0.15,-7.8 0,-4.65 0.07,-9.31 0,-14 A 44.25,44.25 0 0 1 259.66,63.76 50.46,50.46 0 0 1 253.52,55 c -1.57,-3.06 -2.78,-6.29 -4.12,-9.45 -0.44,-1.24 -1.06,-2.67 -0.55,-4 a 21.23,21.23 0 0 1 2.07,-0.77 c -0.13,-1.23 -0.59,-2.49 -0.25,-3.72 0.5,-0.93 1.63,-1.16 2.52,-1.58 3.57,-1.58 7.2,-3 10.9,-4.28 4.12,-1.36 8.34,-2.33 12.5,-3.51 a 9.46,9.46 0 0 1 2.95,-0.28 c 0.68,1.94 1.16,3.94 1.85,5.87 a 25.45,25.45 0 0 0 4.19,7.84 17.84,17.84 0 0 0 1.93,-2.34 c 1,-1.5 2.2,-2.84 3.09,-4.4 1.44,-2.51 2.74,-5.11 4.35,-7.52 a 9.46,9.46 0 0 1 2.91,1 z"/>
      <path id="path26" class="cls-2" d="m 296.81,34 q 1.74,-3.09 3.33,-6.26 c 2.15,1.13 4.53,1.65 6.77,2.56 5.15,2.08 10.52,3.52 15.75,5.37 a 43.11,43.11 0 0 1 -6.47,11.44 c -1.16,1.37 -2.1,2.91 -3.26,4.28 -1.65,2 -3.23,4 -5,5.83 -1.77,1.83 -3.74,3.62 -5.6,5.44 a 14.45,14.45 0 0 1 -2.33,1.7 c -0.64,0.31 -0.58,1.11 -0.67,1.7 a 122.35,122.35 0 0 0 0,17.6 c 0.31,4.88 0.87,9.74 1.29,14.61 -5.78,1.58 -11.82,1.42 -17.75,1.79 a 63.22,63.22 0 0 1 -10.4,-0.26 53.9,53.9 0 0 1 -0.72,-8.37 c -0.18,-4.68 -0.16,-9.37 -0.07,-14 0,-2.86 0.28,-5.7 0.21,-8.56 a 92.74,92.74 0 0 1 -7.31,-7.07 70.82,70.82 0 0 1 -6.13,-8.44 42.46,42.46 0 0 1 -4.18,-8.36 24.4,24.4 0 0 1 -1.73,-7.26 c 1.3,-0.6 2.64,-1.1 4,-1.58 2.39,-0.83 4.65,-2 7.09,-2.69 4.78,-1.43 9.46,-3.3 14.39,-4.17 a 40.94,40.94 0 0 0 3,8.23 21.22,21.22 0 0 0 5.29,7.3 2.7,2.7 0 0 0 2.11,0.8 50.43,50.43 0 0 0 4.23,-5.22 56.71,56.71 0 0 0 4.16,-6.41 z"/>
      <path id="path28" class="cls-1" d="m 208.89,29.31 a 1.69,1.69 0 0 1 2.31,2.1 c -0.52,1.31 -2.63,1 -3,-0.28 a 1.45,1.45 0 0 1 0.69,-1.82 z"/>
      <path id="path30" class="cls-3" d="m 209.13,30.65 c -0.07,-0.7 1.12,-0.84 1.29,-0.17 0.17,0.67 -0.25,0.92 -0.66,1.13 -0.24,-0.29 -0.76,-0.52 -0.63,-0.96 z"/>
      <path id="path32" class="cls-2" d="m 161.05,33.75 a 77.35,77.35 0 0 1 9.78,0 89.1,89.1 0 0 1 12.4,1 c 0.28,1.39 0.69,2.76 0.94,4.17 0.5,2.85 1.21,5.66 1.57,8.54 0.37,4 0.83,8 1,12 q 0.11,4.54 0.5,9.06 c 0.41,3.51 0.38,7.06 0.63,10.59 0.49,6.47 0.38,13 0.64,19.44 -4.94,1.77 -10.18,2.36 -15.32,3.21 -1.58,0.22 -3.14,0.51 -4.73,0.61 -1.21,-7.81 -1.38,-15.74 -2.7,-23.54 a 1.42,1.42 0 0 0 -2.19,-0.93 4.86,4.86 0 0 0 -1.38,1.83 c -1,2 -2.27,4 -3.34,6 A 33.48,33.48 0 0 1 157,88.92 c -0.35,0.05 -0.47,-0.36 -0.68,-0.55 -2.33,-3.12 -4.08,-6.63 -6.26,-9.85 a 1.59,1.59 0 0 0 -1.59,-0.84 c -0.69,0.06 -1,0.84 -1,1.43 -0.08,1.43 0,2.87 0,4.31 a 153.79,153.79 0 0 1 -0.82,16.45 c -3.57,0 -7.13,-0.42 -10.7,-0.58 -3.28,-0.27 -6.57,-0.45 -9.83,-0.91 a 30.61,30.61 0 0 0 3.47,-3.08 c -0.45,-4.21 -0.9,-8.41 -1.47,-12.6 -0.69,-4.86 -1.9,-9.62 -2.69,-14.46 a 153.64,153.64 0 0 0 -4.51,-17.72 c -0.41,-1.66 -1.47,-3.3 -1,-5.06 0.66,-2.82 1.19,-5.67 1.91,-8.48 0.09,-0.55 0.67,-0.7 1.13,-0.84 2.74,-0.81 5.58,-1.2 8.39,-1.73 a 90.83,90.83 0 0 1 10.43,-0.14 c 0.82,-0.05 1.09,0.9 1.52,1.43 2.55,4.25 5.41,8.31 8.11,12.46 a 8.74,8.74 0 0 0 1.59,2.14 1.63,1.63 0 0 0 2.53,-0.84 c 1.68,-5.3 3.58,-10.51 5.55,-15.71 z"/>
      <path id="path34" class="cls-2" d="M 83.91,35.15 A 78.13,78.13 0 0 1 99.21,35 103.15,103.15 0 0 1 110.9,36.33 c 0.72,0.18 1.72,0 2.13,0.82 a 30.12,30.12 0 0 1 2.74,5.85 c 2.43,5.76 3.91,11.86 5.53,17.88 a 156.46,156.46 0 0 1 3.58,17 c 0.41,2.7 0.86,5.39 1.17,8.1 0.31,2.71 0.81,5.53 1,8.32 a 16.27,16.27 0 0 1 -3.78,2.85 c -2.52,1.63 -5.16,3 -7.72,4.6 a 45.41,45.41 0 0 1 -8.39,3.72 c -0.66,-2.19 -0.85,-4.48 -1.34,-6.7 -0.71,-3.23 -1.12,-6.52 -1.85,-9.75 a 1.44,1.44 0 0 0 -0.91,-1.15 c -2.7,0.35 -5.17,1.64 -7.84,2.13 a 2.29,2.29 0 0 0 -1.84,1.09 10.34,10.34 0 0 0 -0.08,2.4 c 0.13,4 0,8.1 0.26,12.14 a 104.84,104.84 0 0 1 -18.3,-2 19.61,19.61 0 0 1 -3.74,-0.94 84,84 0 0 1 0.61,-8.47 c 0.32,-3.93 0.45,-7.87 1.07,-11.77 0.64,-4.49 1.38,-9 2.15,-13.44 0.84,-5.19 2.16,-10.29 3.32,-15.41 0.69,-3.32 1.85,-6.53 2.65,-9.82 0.75,-2.6 1.21,-5.27 2.09,-7.83 0.11,-0.31 0.15,-0.75 0.5,-0.8 z"/>
      <path id="path36" class="cls-2" d="m 233.65,36.61 c 2.09,-0.16 4.17,-0.37 6.27,-0.52 a 6.79,6.79 0 0 1 1.92,0.17 34.64,34.64 0 0 1 0.36,3.68 c 0.78,9.11 0.43,18.29 1.47,27.39 0.3,2.84 0.65,5.68 0.89,8.52 a 13.78,13.78 0 0 0 0.27,2.6 6.17,6.17 0 0 0 3.27,0.13 c 4.52,-0.35 9,-0.81 13.56,-0.79 0.08,3.88 -0.12,7.77 0.15,11.66 0.07,4.15 0.2,8.3 0.12,12.45 -7.5,0.71 -15,1.6 -22.49,2.35 -6.57,0.47 -13.13,1.25 -19.72,1.46 -0.4,-2 -0.82,-4 -1.13,-6 0.68,-0.37 1.49,-0.75 1.74,-1.55 0.79,-6 0.14,-12.1 0.13,-18.15 0,-5.2 -0.76,-10.36 -1.09,-15.55 -0.57,-5.78 -1.28,-11.54 -2.41,-17.24 -0.23,-1 -0.31,-2.26 -1.27,-2.92 a 17.07,17.07 0 0 1 -0.54,-3.68 c 2.93,-1 6,-1.5 9,-2.28 a 79.3,79.3 0 0 1 9.51,-1.78 z"/>
      <path id="path38" class="cls-2" d="m 187.79,46.44 a 56.75,56.75 0 0 1 17,-1.61 41.52,41.52 0 0 1 9.86,1.35 141.68,141.68 0 0 1 2.46,17.52 c 0.4,5.15 1,10.28 1.24,15.45 0.14,5.92 0.43,11.86 -0.19,17.76 a 55.33,55.33 0 0 1 -17.4,1.86 c -1.51,-0.17 -3,-0.07 -4.54,-0.2 -1.81,-0.18 -3.6,-0.54 -5.39,-0.8 -0.32,-6 -0.23,-12.09 -0.66,-18.13 -0.34,-7.12 -0.72,-14.24 -1.23,-21.36 -0.26,-4 -0.59,-7.91 -1.12,-11.85 z"/>
      <path id="path40" class="cls-1" d="m 97.11,66.29 c 0,-0.51 0.53,-1.11 1.07,-0.78 a 11.28,11.28 0 0 1 1.18,2.85 5.56,5.56 0 0 1 0.52,3.14 8.28,8.28 0 0 1 -3.54,1 40.3,40.3 0 0 1 0.77,-6.21 z"/>
      <path id="path42" class="cls-1" d="m 203.93,111.58 a 8.25,8.25 0 0 0 -1.42,0.21 c -2.94,0.63 -5.84,1.45 -8.76,2.18 -2.95,0.93 -6,1.63 -8.82,2.85 a 6.28,6.28 0 0 1 -2.54,0.7 c -2,0 -4,-0.34 -6,-0.3 -3,-0.12 -6,0.64 -9.06,0.79 -0.86,0.07 -1.71,0.16 -2.58,0.24 0,0.62 0,1.26 0,1.88 a 25.5,25.5 0 0 0 -3.06,0.39 32.62,32.62 0 0 0 0.24,5.33 51.47,51.47 0 0 1 0,10.79 c -0.23,2 -0.63,4.45 -2.49,5.67 -1.16,0.35 -2.3,-0.41 -3.12,-1.15 a 14.77,14.77 0 0 1 -3.46,-5.61 38.41,38.41 0 0 1 -1.36,-7.18 27.79,27.79 0 0 1 0.24,-9.82 c 0.16,-0.75 0.63,-1.49 0.36,-2.27 -0.6,-0.63 -1.56,-0.38 -2.33,-0.33 -3.67,0.55 -7.39,0.57 -11,1.3 -3.28,0.66 -6.38,2 -9.64,2.76 -0.14,-0.5 -0.29,-1 -0.42,-1.49 a 46,46 0 0 0 -15.12,-5.61 39.88,39.88 0 0 0 -4.24,-0.73 c -8.37,-0.89 -16.64,1.45 -24.49,4.09 a 61.94,61.94 0 0 0 -10.33,5.67 48.1,48.1 0 0 0 -6.88,6.18 c -0.87,0.95 -2.19,1.28 -3.15,2.12 a 24,24 0 0 0 -4.91,5.09 33.65,33.65 0 0 0 -4.24,11.82 c -1.12,5.48 -0.51,11.15 0.73,16.55 a 33.46,33.46 0 0 0 5.47,11.3 28.74,28.74 0 0 0 4.55,5.09 53.2,53.2 0 0 0 12.3,8.58 48.4,48.4 0 0 0 5.46,1.94 66.89,66.89 0 0 0 16,3.55 h 6.06 c 2.31,-0.16 4.59,-0.48 6.88,-0.82 2.9,-0.53 5.73,-1.38 8.58,-2.12 a 31.59,31.59 0 0 0 6.79,-2.58 2.65,2.65 0 0 0 1.06,-0.88 22.49,22.49 0 0 0 0,-3.64 c 0.66,-0.51 1.32,-1 2,-1.51 0.12,-3.45 -0.06,-6.89 0.09,-10.33 a 26,26 0 0 0 3.15,3.52 42.54,42.54 0 0 0 6.3,4.33 c 3.94,1.79 8.12,3.38 12.52,3.39 a 28.73,28.73 0 0 0 10.27,-1.76 14,14 0 0 0 6.55,-4.24 7.71,7.71 0 0 1 2.55,-1.67 25.53,25.53 0 0 0 6.76,-4.79 34.48,34.48 0 0 0 8.58,-12.41 c 1.09,-2.83 2.45,-5.56 3.51,-8.39 1.57,1.51 2.83,3.31 4.58,4.64 a 18.16,18.16 0 0 1 2.36,1.91 c 0.67,0.74 0.37,1.83 0.42,2.73 0,4.78 -0.15,9.56 0,14.33 0.15,4.77 0.72,9.73 1.27,14.58 0.07,0.54 0.2,1.07 0.3,1.61 a 13.1,13.1 0 0 0 3.82,0.15 c 3.34,-0.28 6.7,-0.43 10,-0.79 3.77,-0.32 7.5,-0.86 11.27,-1.15 a 79.48,79.48 0 0 0 8.91,-1.51 21.88,21.88 0 0 0 -0.21,-2.76 11.52,11.52 0 0 0 2.79,-0.76 c 0.44,-0.4 0.23,-1.06 0.24,-1.58 -0.74,-5.95 -1.68,-11.87 -2.15,-17.85 -0.25,-3.35 -1,-6.64 -1.15,-10 a 92.49,92.49 0 0 0 17.27,-21.37 36.87,36.87 0 0 0 4.64,-10.94 9,9 0 0 0 -2.94,-1.94 c -2.32,-1.21 -4.74,-2.16 -7.15,-3.15 a 56.81,56.81 0 0 0 -9.15,-2.94 66.58,66.58 0 0 0 -8.36,-1.82 c -0.28,0.61 -0.48,1.25 -0.79,1.85 -0.12,0.34 -0.59,0.32 -0.85,0.15 -0.72,-0.29 -1.29,-1 -2.09,-1 a 4.07,4.07 0 0 0 -1.18,1.67 c -1.64,3.41 -3.48,6.72 -5.24,10.06 a 24.3,24.3 0 0 1 -1.36,2.27 22.91,22.91 0 0 1 -4.58,-4.27 c -1.24,-1.43 -2.67,-2.7 -3.82,-4.21 a 34,34 0 0 1 -4,-6.58 2.54,2.54 0 0 0 -0.45,0 z m -93.13,33 c 2.35,0 4.69,0 7,0.21 a 15,15 0 0 1 3.79,0.39 c 0.51,0.18 0.53,0.82 0.58,1.27 a 28.46,28.46 0 0 0 0.3,3.09 c -3.39,-0.09 -6.78,-0.52 -10.18,-0.33 -2,0.2 -4,-0.16 -6,0.06 -2.22,0.1 -4.43,0.14 -6.64,0.39 a 10,10 0 0 0 0,2.12 A 34.23,34.23 0 0 1 96,152 c -0.14,3.75 0.45,7.47 0.39,11.21 a 11.5,11.5 0 0 1 -5.27,-6.37 6.56,6.56 0 0 1 0.91,-4 13.27,13.27 0 0 1 7,-6.33 c 3.67,-1.69 7.78,-1.99 11.77,-1.95 z"/>
      <path id="path44" class="cls-2" d="m 202.58,113.19 c 0.29,0 0.75,-0.27 0.9,0.13 a 35.72,35.72 0 0 0 4.87,7.17 c 2.92,3.28 5.82,6.7 9.6,9 0.61,0.37 1.48,1.11 2.12,0.39 2.38,-2.48 3.72,-5.71 5.5,-8.6 1.43,-2.54 2.5,-5.25 3.81,-7.85 a 38.12,38.12 0 0 1 6,1.3 73.12,73.12 0 0 1 9.31,2.9 78.54,78.54 0 0 1 9.51,4.32 48.1,48.1 0 0 1 -6,12.38 83.75,83.75 0 0 1 -5.07,7.22 91.52,91.52 0 0 1 -6.75,7.82 27.53,27.53 0 0 1 -2.77,2.75 4.3,4.3 0 0 0 -1.42,1.58 c 0.13,1.57 0.57,3.09 0.76,4.65 1,6.73 1.43,13.53 2.36,20.26 a 30.29,30.29 0 0 1 0.32,3.39 c -3,0.79 -6.16,1.07 -9.24,1.59 -3.08,0.52 -5.89,0.73 -8.84,1.06 -4.11,0.42 -8.24,0.61 -12.34,1 a 137.6,137.6 0 0 1 -1.06,-16.69 c 0,-4.1 0,-8.2 0,-12.3 0,-0.66 0.1,-1.47 -0.51,-1.91 -1.72,-1.47 -3.76,-2.57 -5.32,-4.24 a 34.69,34.69 0 0 1 -3.57,-3.73 c -0.63,-0.92 -1.32,-1.79 -1.91,-2.73 -0.15,-1.57 0.05,-3.16 0,-4.74 a 100.2,100.2 0 0 0 -1.24,-14.83 52.61,52.61 0 0 0 -1.2,-6.19 8.51,8.51 0 0 0 -2.82,-1 c 4.95,-1.55 10,-2.89 15,-4.21 z"/>
      <path id="path46" class="cls-2" d="m 94.1,115.3 a 41.81,41.81 0 0 1 16.68,-1.3 c 1.6,0.31 3.22,0.55 4.79,1 4,1.35 8.06,2.5 11.6,4.8 a 49.31,49.31 0 0 1 1.15,9.3 47.16,47.16 0 0 1 -0.32,12.66 c -1.38,-0.24 -2.74,-0.58 -4.1,-0.91 a 39.4,39.4 0 0 0 -4.56,-0.61 54.88,54.88 0 0 0 -9.54,-0.33 24.92,24.92 0 0 0 -6.53,0.73 29.67,29.67 0 0 0 -5.87,2.18 17.54,17.54 0 0 0 -6.84,6.89 10.56,10.56 0 0 0 -0.56,9.29 13.56,13.56 0 0 0 5.79,5.94 15.11,15.11 0 0 0 10,1.69 6.77,6.77 0 0 0 4.46,-3.87 1.62,1.62 0 0 0 -0.14,-1.83 10.46,10.46 0 0 0 -3.56,-0.09 c -1.65,0 -3.3,0.14 -4.94,0.11 0,-3.28 -0.46,-6.55 -0.33,-9.84 3.82,-0.39 7.66,-0.28 11.5,-0.33 3.84,-0.05 7.39,0.27 11.08,0.43 1.24,0.15 2.52,0 3.74,0.28 l 0.28,0.26 a 46,46 0 0 1 0.73,8.29 c 0.47,6.43 1,12.87 1,19.33 a 12.94,12.94 0 0 1 -0.08,2.39 13,13 0 0 1 -2.38,1.58 50.2,50.2 0 0 1 -23.36,6.06 40.22,40.22 0 0 1 -7.35,-0.49 c -2.6,-0.43 -5.11,-1.2 -7.67,-1.79 a 42.23,42.23 0 0 1 -11.49,-4.85 42.33,42.33 0 0 1 -6.36,-5.16 38.82,38.82 0 0 1 -8.13,-12.66 43.13,43.13 0 0 1 -2.57,-11.88 36.42,36.42 0 0 1 0.27,-7.65 29.24,29.24 0 0 1 2.42,-7.92 c 1.08,-2.36 3,-4.18 4.62,-6.16 1.62,-1.98 3.39,-3.32 5.06,-5 a 38.2,38.2 0 0 1 7.71,-5.34 48.11,48.11 0 0 1 13.81,-5.2 z"/>
      <path id="path48" class="cls-2" d="M 137.22,119.39 A 64.17,64.17 0 0 1 150,117.86 c -1,4.53 -0.63,9.21 0,13.75 a 30.42,30.42 0 0 0 1.32,5.54 12.45,12.45 0 0 0 5,6.3 c 1.76,1 3.94,0.73 5.79,0.1 A 6.13,6.13 0 0 0 166,140 c 1.41,-3.44 1.33,-7.25 1.3,-10.91 0,-3.06 -0.34,-6.12 -0.4,-9.18 1.57,-0.08 3.09,-0.44 4.65,-0.62 a 58,58 0 0 1 12.87,0 22.54,22.54 0 0 1 3.82,0.66 7.88,7.88 0 0 1 0.79,2.67 c 1.36,8.24 2.35,16.66 1.38,25 a 18,18 0 0 1 -1.61,5.05 c -1.2,2.75 -2.34,5.54 -3.7,8.22 a 24.25,24.25 0 0 1 -2.37,4.07 51,51 0 0 1 -4.15,4.4 c -2.89,3.12 -6.73,5.13 -10.61,6.76 -3,1.51 -6.37,1.75 -9.65,1.8 a 27.91,27.91 0 0 1 -9.55,-1.43 55.73,55.73 0 0 1 -6.36,-2.9 26.55,26.55 0 0 1 -8.41,-6.59 11.53,11.53 0 0 1 -2.73,-5.21 c -0.68,-3.66 -0.44,-7.45 -1.33,-11.08 -0.35,-1 -1.68,-0.82 -2.32,-1.46 a 24.73,24.73 0 0 1 -0.8,-5.16 c 0.77,0.16 1.56,0.26 2.34,0.37 a 6.52,6.52 0 0 0 1.1,-2.5 c 1.11,-6.71 0.18,-13.51 -0.33,-20.22 2.41,-0.86 4.86,-1.58 7.3,-2.35 z"/>
    </g>
  </g>
</svg>
