<?xml version="1.0" encoding="utf-8"?>
<!-- Generator: Adobe Illustrator 24.1.2, SVG Export Plug-In . SVG Version: 6.00 Build 0)  -->
<svg xmlns="http://www.w3.org/2000/svg" xmlns:xlink="http://www.w3.org/1999/xlink" version="1.1" x="0px" y="0px" width="1600px" height="1083px" viewBox="0 0 1600 1083" style="enable-background:new 0 0 1600 1083;" xml:space="preserve">
<style type="text/css">
	.st0{opacity:0.8;fill:#FFFFFF;}
</style>
<path class="st0" d="M106.4,1083c-2.5-6.6-2.2-12.6-0.2-18.6c6.4-19,12.5-38.1,19-57.1c8.7-25.4,17-50.8,26.4-75.9  c29.8-79.6,59.9-159,90-238.5c12.9-34.2,25.1-68.7,37.9-103c2.2-6,4.7-12,7.7-17.7c3.9-7.5,7.1-15.3,9.7-23.3  c0.4-1.3,0.7-2.7,1.3-3.9c9.7-19.6,14.3-41.4,25.3-60.5c0.4-0.7,0.6-1.4,0.9-2.1c-1.3-2.8-3.9-2.8-6.3-2.6  c-7.6,0.4-15.3,0.9-22.9,1.4c-39,2.4-78,5-117,7.3c-18.7,1.1-37.4,1.5-56,2.8c-17.3,1.2-34.5,3-51.7,4.9c-15.4,1.7-30.6,4.4-46,6  c-6.9,0.7-14,0.1-21.1,0c-2.6,0-3.5-1.9-3.4-4.1c0.2-3.3,0.3-6.8,1.4-9.9c2.5-7.2,5.4-14.3,8.2-21.4c2.3-5.7,6.4-9.2,12.6-10  c2.9-0.4,5.7-1,8.6-1.2c14.2-1.1,28.4-2.1,42.6-3c22.9-1.4,45.9-2.7,68.8-4.1c19-1.1,37.9-2.2,56.9-3.3c29.2-1.7,58.4-3.4,87.6-5.1  c17.1-1,34.3-2.1,51.4-2.9c4.4-0.2,7.1-2.1,8.9-5.9c6.3-13.1,13-26,19.1-39.2c6.2-13.3,11.9-26.9,18-40.2  c5.8-12.5,12.2-24.7,17.8-37.3c2.5-5.7,6.7-8.3,12.1-9.2c9.3-1.7,18.6-3.8,28.2-3.5c1.9,0.1,3.9,0.2,6.2,0.4c-0.4,1-0.5,1.6-0.8,2.1  c-13.1,17.9-22.4,37.9-31.6,58c-5.1,11.1-10.2,22.3-15.6,33.3c-2.5,5.1-5.5,9.9-8.7,14.5c-5.2,7.5-8.8,15.7-12.4,24.8  c2.4,0.2,4.3,0.5,6.1,0.4c12.4-0.4,24.8-0.9,37.2-1.3c5.4-0.2,10.7-0.6,16.1-0.4c3.1,0.1,4.6-0.9,5.9-3.7  c12.2-26.7,24.8-53.3,36.8-80.1c22-49,46.8-96.7,70.3-145c10.8-22.1,23.1-43.2,35.5-64.3c4.2-7.2,9.7-12.9,16.7-17.3  c3.6-2.3,7.2-4.5,11.4-6.3c-0.6,1.3-1.1,2.7-1.7,4c-9.9,20.5-20.3,40.8-29.6,61.6c-7.8,17.3-14.2,35.2-21.3,52.8  c-15.7,39.2-33.4,77.6-51.1,116c-11.5,24.9-22.6,49.9-33.9,74.9c-0.8,1.7-1.3,3.4-2.2,5.8c1.9,0.1,3.5,0.4,5.1,0.3  c48.1-0.9,96.2-1.8,144.3-2.6c48.4-0.8,96.8-0.5,145.2,1.6c17.3,0.7,34.6,0.1,51.9,0.4c26.7,0.5,53.3,1.4,80,1.9  c34.6,0.6,69.2,2.9,103.8,5.1c17.3,1.1,34.6,2.2,51.8,3.1c16.5,0.9,33.1,1.6,49.6,2.6c4.6,0.3,9.1,1.1,13.6,1.9  c9.7,1.5,19.4,3,29,4.7c4.6,0.8,9.1,2.4,14.3,3.7c-1.1,5.2-1.9,9.8-3.2,14.3c-2.3,7.6-4.7,15.2-7.4,22.7c-1.7,4.9-5.2,7.6-10.6,8  c-11.7,0.9-23.5,2.2-35.2,3.3c-10.5,0.9-21.1,1.9-31.6,2.5c-4.2,0.3-8.5-0.1-12.8-0.4c-1.3-0.1-2.7-0.6-3.9-1.2  c-5.8-2.6-7.1-7.2-3.1-12.1c1.5-1.8,3.6-3.4,5.7-4.4c3.9-1.8,8-3.1,12-4.6c1.6-0.6,3.1-1.1,5.1-1.7c-6.5-5-13.7-6.6-21-7.1  c-29.3-2.2-58.7-4.1-88-6.1c-2.6-0.2-5.2,0-7.8-0.5c-3.9-0.7-7.8-1.4-11.5-2.7c-4-1.4-7.8-2.3-12.1-2c-4.1,0.2-8.2-0.7-12.3-1.1  c-2.6-0.2-5.1-0.4-7.7-0.2c7.8,3.3,16.2,1.3,24.3,3.3c-0.9,0.3-1.8,0.7-2.7,0.7c-4.3,0.1-8.6,0.2-12.9,0.1  c-22.4-0.5-44.7-1.2-67.1-1.7c-37.7-0.8-75.4-1.6-113-2.3c-26.8-0.5-53.6-1.8-80.4-0.6c-5.7,0.3-11.3,0.8-17,1.1  c-10.6,0.6-21.1,1.1-31.7,1.6c-13.5,0.6-26.9,1.1-40.4,1.8c-16.1,0.8-32.1,1.8-48.2,2.7c-21.4,1.3-42.8,2.5-64.2,3.8  c-1.1,0.1-2.1,0.2-3.2,0.3c-4.6,0.3-7.5,2.6-9.4,6.9c-7.5,17-15.2,33.8-22.7,50.7c-5.1,11.3-10.1,22.7-15,34  c-1.2,2.8-2.2,5.7-3.2,8.6c-0.2,0.6,0,1.4,0,2.7c1.2-1,2-1.7,2.7-2.4c8.7-8.8,17.5-17.6,26.1-26.6c4.6-4.9,9.8-6.3,16.2-4.4  c6.3,1.9,12,4.6,16.9,8.9c2.2,1.9,4.5,3.7,6.7,5.5c1.6,1.4,3.2,2.8,4.8,4.3c5,4.6,6.3,10.2,4.7,16.8c-2.9,11.7-5.7,23.5-8.4,35.3  c-0.7,3-1,6.1-1,9.1c0,2.9,2.1,3.8,4.3,1.9c10-8.6,20.7-16.3,29.8-25.9c13.1-13.9,29-23.3,47-29.6c7.5-2.6,13.1-1,17.9,5  c1.3,1.7,2.8,3.2,4.1,4.9c5,6.3,5.5,11,1.2,17.7c-4.1,6.3-8.5,12.4-13.2,18.2c-6.9,8.8-14.3,17.2-23.1,24.2  c-7,5.6-14.5,10.3-23,13.2c-6.4,2.2-12.6,4.8-18.9,7c-2,0.7-3.1,2-3.8,3.6c-2.4,5.5-4.9,10.9-6.7,16.5c-1.9,5.8-3.1,11.8-4.4,17.8  c-0.5,2.7-0.5,5.5-0.4,8.2c0.4,5.1,3,7.5,8.2,7c3.6-0.3,7.3-1.1,10.8-2c11.8-2.8,23.2-6.9,34-12.4c8.6-4.3,17.3-8.5,25.8-13.1  c7-3.8,13.6-8.2,20.8-12.7c8.1,7.7,16.5,15.7,25.2,24c-1.3,1-2.2,1.8-3.2,2.3c-3.9,1.9-7.8,3.6-11.7,5.4  c-18.6,8.6-37.2,17.3-55.9,25.8c-14.2,6.4-29,10.8-44.9,9c-7.5-0.8-13.7-4.1-18.7-9.8c-3.3-3.8-6.9-7.4-10.4-11  c-6.4-6.7-9-14.4-7-23.6c1.6-7.3,3-14.7,4.6-22c1.3-5.8,0.5-10.5-4.3-14.8c-8.9-7.9-13.6-18.4-15.6-30c-1.4-8.1-2.5-16.4-3.7-24.5  c-0.3-2.2-0.7-4.4-1.2-7.6c-1.8,1.8-3.2,3-4.2,4.4c-3.2,4.8-6.4,9.7-9.3,14.7c-12.8,22.8-25.8,45.6-41.2,66.8  c-5,6.9-10.2,13.8-17,19.2c-3.7,2.9-5.7,3.3-9.4,0.4c-5.3-4-10.3-8.2-15.3-12.5c-3.6-3.2-4.2-7.8-3.8-12.3  c0.7-6.8,1.4-13.7,2.7-20.5c2.5-12.8,7.5-24.9,12.8-36.8c6.6-14.8,13.1-29.7,19.7-44.5c10.1-22.7,20.2-45.3,30.3-67.9  c3.7-8.2,7.4-16.5,11-24.7c0.6-1.4,1.1-2.8,1.8-4.7c-21.2-1.9-41.9,1.3-62.9,1.4c-1,2.4-1.8,4.7-2.8,6.9c-4.1,9-8.7,17.9-12.5,27.1  c-4.5,11-8.2,22.4-12.8,33.5c-5.4,13.3-10.5,26.8-17.6,39.4c-1.6,2.9-2.8,6.1-3.8,9.4c-3.1,10.5-7.7,20.3-11.8,30.4  c-5.9,14.6-11.2,29.5-16.6,44.3c-14.7,40.6-29.1,81.3-43.9,121.8c-8.5,23.3-17.7,46.3-26.6,69.5c-14.3,37.2-28.6,74.3-42.8,111.5  c-2.7,7.1-4.5,14.6-6.7,21.9c-1.5,5-2.9,10-4.6,14.9c-3.7,10.9-7.8,21.6-11.2,32.6c-1.9,6-2.8,12.2-4,18.3c-0.4,2.1-0.7,4.2-1,6.4  c-0.5,3.9-2.1,5.7-6.4,6.9c-7.8,2.1-15.2,5.5-22.8,8.4C110.5,1081.1,108.7,1082,106.4,1083z M493.8,334.6c-0.2-0.2-0.5-0.5-0.7-0.7  c-1,1.2-2.3,2.2-2.9,3.6c-8.3,17.8-16.6,35.7-24.8,53.6c-1.4,3-2.4,6.1-1.6,9.6C474.8,379,484.3,356.8,493.8,334.6z M529.3,617.9  c1.2-0.8,2.5-1.6,3.7-2.5c3.7-2.7,7.2-5.7,11.1-8.1c6.4-3.9,11.4-9.1,15.8-15.1c0.5-0.7,1-1.6,1.8-3  C546.9,595.2,537.1,605.4,529.3,617.9z M570.6,452c-0.5-0.2-1-0.6-1.5-0.6c-22.7,0.7-45.5,1.4-68.2,2.2c-0.7,0-1.3,0.3-2,0.5  C522.8,456.2,546.7,455.4,570.6,452z M404.9,615.8c8-7.5,23.1-29.4,23.7-34.5C422.2,586.9,406.2,610,404.9,615.8z M573.2,451.1  c4.2,2,11.1,1.8,13.8-0.2C582.2,449.7,577.6,449.1,573.2,451.1z M507.1,303.2c-4.5,7-7.2,14.2-6.6,17.5  C502.6,314.5,506.7,309.5,507.1,303.2z M478.7,603.8c2.7-5.5,3-12.9,0-17.7C478.7,592.6,478.7,598.3,478.7,603.8z M457.8,415.9  c0.7-2,1.4-4.1,2.1-6.1C457.3,411.2,456.8,413.3,457.8,415.9z M450.4,428.8c0.4,0.1,0.8,0.2,1.2,0.3c0.6-1.8,1.2-3.5,1.7-5.3  c-0.3-0.1-0.7-0.2-1-0.3C451.7,425.3,451,427.1,450.4,428.8z M1134.8,655.2c-3.1-1.2-5.5,0-7.4,1.6c-6.5,5.5-14.2,9-21.8,12.7  c-3.6,1.7-7.1,3.6-10.6,5.6c-8.8,5.1-18.1,6.6-27.9,4.4c-2-0.4-4.1-1.3-5.8-2.5c-11.3-8.2-15.2-19.5-13.7-33  c0.4-3.6,1.4-7.2,2.4-10.7c1.8-5.7,3.8-11.3,5.8-16.9c0.6-1.6,1.4-3,2.2-4.5c1.7-3.4,3.7-6.8,5-10.3c3.8-10.1,9.8-19.1,15.8-27.9  c1.2-1.8,3.3-3.5,5.4-4c12.1-2.8,23.6-0.7,35.2,4.6c-1,2.9-1.6,5.5-2.8,7.9c-2.5,4.9-5.1,9.8-8,14.5c-11.5,18.3-21.5,37.4-31.6,56.5  c-0.1,0.3-0.4,0.5-0.4,0.8c-0.1,1.3-0.7,2.9-0.2,3.8c1,1.5,2.7,0.9,4.1,0.2c3.3-1.7,6.6-3.2,9.8-5.1c16.5-9.9,33-20,49.6-29.9  c5-3,8.7-7.1,11.2-12.5c22.1-48.1,43.9-96.4,66.4-144.4c23-49.2,45.1-98.9,67.2-148.6c6.6-14.8,14.6-29,21.9-43.5  c31-61,61.9-122.1,92.9-183.1c6.9-13.5,13.3-27.3,21.1-40.3c6.2-10.3,11.3-21,17-31.5c0.7-1.3,1.6-2.6,2.3-4  c2.2-4.2,5.5-6.5,10.3-7.5c9.7-2.1,19.3-4.7,29-7.1c0.8-0.2,1.7-0.3,3.4-0.6c-0.9,2.2-1.4,3.9-2.2,5.5c-9,18.6-17.9,37.2-27,55.7  c-15.5,31.4-31,62.9-46.7,94.2c-8.6,17.2-17.8,34.2-26.4,51.5c-22.2,44.3-44.2,88.8-66.3,133.2c-2.5,5.1-5.5,9.9-8.1,14.9  c-4.7,9.3-9.3,18.6-13.9,27.9c-29.9,59.5-57.7,120-84,181.2c-14,32.6-28.5,65.1-41.8,98c-6,14.8-9.9,30.6-14.5,46  c-0.9,2.9-0.9,6-1.2,9.1c-0.2,1.9,0.9,2.8,3,3c1.3-1.5,2.8-3,4.1-4.6c20.6-25.2,43.6-48.1,65.9-71.8c10.2-10.8,19.6-22.3,28.9-33.9  c10-12.4,20.6-24.3,31-36.4c8.3-9.8,23.1-10.8,32.5-6.6c5.9,2.6,11.5,5.7,16,10.6c1.6,1.7,3.9,2.7,6.5,4.3  c3.8-5.3,7.6-9.9,10.7-14.9c11.7-18.7,23.1-37.6,34.6-56.4c6.3-10.2,12.6-20.3,19-30.4c6.8-10.6,13-21.5,18-33  c11.1-25.4,24.4-49.8,37.2-74.3c12.8-24.4,25.6-48.8,38.4-73.2c0.6-1.1,1.2-2.1,2-3.5c1.2,1.3,2.2,2.4,3.2,3.6  c4.7,5.7,9.1,11.5,14,17c4,4.5,4.5,9.3,2.2,14.5c-4.2,9.8-8.2,19.8-13,29.4c-11.2,22-22.9,43.7-34.2,65.5  c-20.5,39.5-42.2,78.4-61.4,118.6c-8.4,17.6-18.7,34.4-28.1,51.6c-0.4,0.8-0.9,1.6-1.3,2.4c-14.7,28.9-29.5,57.8-44.1,86.8  c-21.2,42.3-41.6,85-60.7,128.2c-2.2,5-4.1,10.2-6,15.4c-1.7,4.8-4.7,8.3-9.6,9.7c-9.4,2.7-18.9,3.5-28.6,1.7  c-0.4-0.1-0.8-0.4-1.7-0.8c26.1-54.2,48.6-110,79.3-162c-1.6-1.5-2.9-1.2-4.2-0.1c-2.2,1.9-4.4,3.8-6.7,5.6  c-1.8,1.4-3.6,2.8-5.5,4.2c-7.1,4.9-14.6,5.4-22.1,1.5c-5.7-3-11.2-6.2-16.7-9.6c-9.1-5.5-10.2-5.6-17.8,1.9  c-10.6,10.4-20.8,21.2-31.7,31.3c-9.6,9-19.8,17.4-30,25.8c-3.9,3.2-8.3,5.7-12.7,8.2c-4.9,2.8-10,2.5-14.9-0.3  c-6.5-3.6-11.1-9.1-14.1-15.8c-5.3-11.7-6.1-24-5.1-36.5c0.9-11.5,3.3-22.7,6.7-33.7C1134,658.5,1134.4,656.9,1134.8,655.2z   M1262.9,655.6c0.4,2.2,0.8,4.5,1.3,6.7c0.7,3.1,2.8,5,5.9,5.9c3.2,0.9,6.3,1.2,9.4-0.2c11.3-5,21.7-11.3,30-20.7  c7.5-8.5,14.4-17.5,20-27.4c1.2-2,1.3-4,0.9-6.2c-1.4-7.3-5.8-11.8-12.9-14.1c-3.6-1.2-6.2-0.6-8.8,2.3c-7.1,7.8-14.6,15.3-21.8,23  c-6.8,7.3-13.5,14.6-20.2,22C1264.4,649.4,1262.8,652.1,1262.9,655.6z M1510.7,657c2.5,2.6,4.6,4.9,6.8,7.2c2.3,2.5,4.8,4.7,6.9,7.4  c10.3,13.4,3.8,28.5-5.6,34.7c-7.5,5-15.4,9.4-23.5,13.4c-19.3,9.4-39.2,17.4-59.6,24.1c-12.4,4.1-25.2,5.2-38.2,3.6  c-4-0.5-8-2-11.7-3.7c-5.9-2.7-8.7-8.1-9.9-14.1c-0.4-1.9,0.3-4.3,1.1-6.1c4.9-11.3,12.4-20.7,22-28.4  c14.8-11.9,29.6-23.8,44.4-35.7c0.7-0.6,1.4-1.2,2-1.7c-0.2-0.5-0.2-0.9-0.4-1c-10.3-8.7-20.6-17.4-30.9-26c-4-3.3-8.1-6.5-12.3-9.6  c-4.2-3.1-5.6-6.9-4.1-12c1.5-5.4,3.8-10.3,7.8-14.3c8.2-8.1,16.2-16.3,24.6-24.1c7.7-7.2,17-12,26.1-17.1c4-2.3,8.2-1.3,11.9,0.8  c6,3.3,12,6.8,17.7,10.6c6.1,4,11.9,8.5,17.9,12.8c4.3,3,4.3,6.2-0.1,9.1c-0.6,0.4-1.3,0.8-2,1c-5.2,1.8-10.4,3.5-15.9,5.3  c-0.3-1.6-0.6-2.9-1-4.4c-0.5,0-1.1-0.1-1.6,0c-8.6,2.6-16.5,6.5-23.9,11.4c-9.5,6.4-17.5,14.3-24.8,23.1c-2.4,3-2,4.7,1.7,5.5  c12.3,2.7,24.6,5.2,36.8,8c2.5,0.6,4.1-0.6,5.9-1.8c15.7-10.5,31.3-21,47-31.4c5.1-3.4,10.4-6.5,15.5-9.8  c8.3-5.4,16.4-11.2,24.9-16.4c9.9-6.1,10.4-5.2,17.2,3.3c4.4,5.5,8.7,11.1,13.1,16.6c1.2,1.6,2.4,3.1,3.8,4.8  c-2.5,3.6-6,5.8-9.5,7.8c-13.7,7.7-27.6,15.2-41.2,23.2c-11.6,6.8-23,14-34.5,21.1C1513.5,654.6,1512.4,655.6,1510.7,657z   M1418.6,703.7c13.1-2.9,34-21.2,35.8-31.2C1446.4,674.4,1422,695.7,1418.6,703.7z M1435.4,700.5c7-1.4,10-3.1,14.1-7.4  c7.2-7.7,8.6-9.8,8.8-13.2C1450.2,686.2,1442.2,692.5,1435.4,700.5z M1062.4,541.5c-1.3,3-2.1,6.1-3.9,8.4  c-14.6,18.7-24.9,40-37.4,60c-11.8,19-23.9,37.8-36,56.6c-3.4,5.3-7.5,10-11.2,15.1c-4.9,6.6-11.7,9.7-19.6,10.7  c-3.6,0.5-7.3,0.7-11,1.2c-5.1,0.6-9.7-0.7-14.2-2.9c-4-1.9-6.2-5.1-5.9-9.5c0.4-5.8,0.7-11.7,2.1-17.3c4.1-16.6,4.8-33.6,6.3-50.6  c0.3-3,0-6.1-1.9-8.9c-4.1,0.5-7.1,2.8-9.7,5.6c-5.8,6.3-11.7,12.5-17.2,19.1c-11.3,13.5-22.4,27.2-33.6,40.8  c-9,10.8-19.5,19.9-30.9,28c-14.1,10.1-29.1,10.9-44.9,4.3c-5.2-2.2-8.3-6-9.4-11.5c-1.4-7.1-0.8-14.1,0.5-21  c4.4-24.9,9-49.7,13.6-74.6c0.7-3.7,1.7-7.5,3.1-11c0.7-1.9,2.1-3.7,3.6-5.1c6.7-6.4,15.1-9.9,24-12c4-1,8.1-1.6,12.2-2.4  c3.3-0.6,5.1,0.4,5.6,3.6c0.4,2.3,0.3,5-0.6,7.2c-7.6,19.6-12.6,40-18.6,60.1c-2.7,9.1-6.2,17.9-9.2,26.9  c-2.3,6.7-3.3,13.6-2.3,21.2c1.2,0.1,2.4,0.4,3.5,0.2c3-0.4,5.5-1.9,7.5-4.1c7.7-8.5,16.2-16.5,22.9-25.7  c11.1-15.2,23.9-28.7,36.7-42.3c3.9-4.1,8.2-7.8,12.5-11.5c3.8-3.3,7.8-6.4,11.7-9.7c6.2-5.3,13.2-8.2,21.5-7.5  c4,0.3,8-0.2,11.9,0.3c4.5,0.6,9.1,1.5,13.3,3.1c6.2,2.2,8.9,7.1,8.9,13.6c0,7.7,0.1,15.3,0.4,23c0.1,2.1,0.7,4.3,1.6,6.1  c1.2,2.3,3.1,2.4,4.8,0.4c1.8-2.3,3.2-4.8,4.9-7.2c6.3-8.9,11.3-18.4,15.8-28.4c5.7-12.7,12.6-24.8,19-37.2c2-3.9,4.2-7.8,6-11.9  c2.4-5.2,6.3-8.2,11.7-9.3c2.2-0.5,4.5-0.8,6.8-0.8C1046.1,534.4,1054,537.7,1062.4,541.5z M948.4,613c-0.4-0.1-0.8-0.1-1.2-0.2  c-1.2,7.1-2.9,14.1-3.3,21.2c-0.4,6.7-1.7,13-3.6,19.3c-0.8,2.9-1.2,6-1.7,9c-0.1,0.8,0.1,1.7,0.2,2.5  C944,647.9,947.1,630.6,948.4,613z M903.4,610c4.5-0.6,4.5-0.6,4.7-4.1C906.5,607.2,905.2,608.3,903.4,610z M897.9,617.4  c-4.2,1.1-4.2,1.1-4.6,4.2C894.8,620.2,896.1,619.1,897.9,617.4z M1019.9,573.7c0.3,0.2,0.5,0.4,0.8,0.6c0.5-1,1.1-2.1,1.6-3.1  c-0.2-0.1-0.4-0.2-0.7-0.4C1021,571.8,1020.5,572.7,1019.9,573.7z M927.1,672c0.2,0,0.4,0,0.6,0c-0.1-1-0.1-1.9-0.2-2.9  c-0.2,0-0.4,0-0.6,0C927,670.1,927,671,927.1,672z"/>
</svg>
