<?xml version="1.0" encoding="utf-8"?>
<!-- Generator: Adobe Illustrator 24.1.2, SVG Export Plug-In . SVG Version: 6.00 Build 0)  -->
<svg xmlns="http://www.w3.org/2000/svg" xmlns:xlink="http://www.w3.org/1999/xlink" version="1.1" x="0px" y="0px" width="2000px" height="549.4px" viewBox="0 0 2000 549.4" style="enable-background:new 0 0 2000 549.4;" xml:space="preserve">
<style type="text/css">
	.st0{fill:#FFFFFF;}
</style>
<path class="st0" d="M18.7,283.8c0.6,87.3,44.3,151.5,127.8,151.5c58.6,0,96-31.2,111-84.2h18.7c-12.5,56.1-56.1,101-129.7,101  C51.1,452.1,0,380.4,0,282.5C0,189,54.3,117.9,144.1,117.9c33.7,0,61.7,10.6,82.9,28.7c35.5,29.9,51.8,77.3,53,137.2H18.7z   M144.1,134.7c-70.5,0-120.4,52.4-124.7,133.5h241.3C255.7,182.1,210.2,134.7,144.1,134.7z M524.6,390.4h-1.2  c-18.1,31.2-51.8,61.1-111,61.1c-65.5,0-102.3-39.3-102.3-97.3V123.5h19.3v228.9c0,55.5,32.4,82.9,86.1,82.9  c64.2,0,109.1-46.8,109.1-97.3V123.5h18.7v322.4h-18.7V390.4z M590.9,123.5h18.7v82.9h0.6c20.6-58,67.4-88.6,123.5-88.6  c73,0,134.7,56.1,134.7,166.5c0,98.5-55.5,167.1-136.6,167.1c-59.9,0-102.9-33.1-121.6-82.9h-0.6v180.9h-18.7V123.5z M849.1,285  c0-99.2-51.1-150.3-118.5-150.3c-73.6,0-122.2,61.7-122.2,151.5c0,91.1,48,149,122.9,149C802.4,435.3,849.1,372.9,849.1,285z   M921.6,181.5h1.2c18.7-32.4,54.9-63,116-63c64.2,0,101,39.3,101,96.7v230.7h-19.3V217c0-54.9-32.4-81.7-84.8-81.7  c-65.5,0-114.1,45.5-114.1,94.2v216.4h-18.7V0h18.7V181.5z M1174.3,284.4c0-92.3,54.9-166.5,146.6-166.5  c92.3,0,146.6,73.6,146.6,166.5s-54.3,167.8-146.6,167.8C1229.2,452.1,1174.3,377.3,1174.3,284.4z M1448.1,284.4  c0-90.4-53-150.3-127.2-150.3c-74.2,0-127.8,60.5-127.8,150.3c0,90.4,53.6,151.5,127.8,151.5  C1395.1,435.9,1448.1,374.8,1448.1,284.4z M1644.1,141.5c-70.9-30.8-130.2,41.4-130.2,86.3v218.1h-18.7V123.5h18.7v55h1.2  c16.8-35.5,58.1-77.1,135.1-52.4L1644.1,141.5z M1682.4,44.9h-18.7V3.1h18.7V44.9z M1682.4,445.9h-18.7V123.5h18.7V445.9z   M1998.1,429.7c-4.4,1.9-10.6,4.4-16.8,4.4c-14.3,0-23.7-6.9-23.7-30.6V215.8c0-63.6-36.8-97.9-108.5-97.9  c-82.3,0-122.2,46.5-122.2,98.5v8.1h19.3v-8.1c0-48.5,39.9-81.7,102.9-81.7c59.9,0,89.8,27.4,89.8,80.4v5  c0,34.3-22.5,41.2-101.6,49.9c-67.4,8.1-124.7,24.3-124.7,94.8c0,54.9,41.8,87.3,102.9,87.3c64.2,0,106.6-32.4,122.2-68.6h1.2v21.8  c0,26.2,10.6,44.3,38.7,44.3c10,0,18.1-2.5,22.5-5v-15H1998.1z M1938.9,330.5c0,59.9-49.9,105.4-122.2,105.4  c-41.8,0-85.4-18.7-85.4-70.5c0-58.6,42.4-71.7,109.8-79.8c56.8-6.9,82.3-15,97.9-27.4V330.5z"/>
</svg>
