<?xml version="1.0"?>
<svg xmlns="http://www.w3.org/2000/svg" width="2000" height="437.8" xml:space="preserve">
  <path d="M461.6 47.8 475 60.2l46.8 110.4h10.8L578 60.2l13.4-12.4h-38.2l12.1 12.4-33.5 81.2-34.4-81.2 12.5-12.4zm220-1.5v113.2L669 170.6h45.1l-12.8-11.1v-97zm336.5 0v113.2l-12.6 11.1h45.1l-12.8-11.1v-97zm-91.2 124.3-12.4-11.1L864.7 97l36.2-38.2 14.3-11h-43.3l11.9 11.5-46.7 50.1V47.8h-33.6l13.1 11.5v100.2L804 170.6h33.1V126l12.9-13.6 37.8 47.1-12.2 11.1zm212.5-122.8 13 11.5v100.2l-12.7 11.1h39.3l-14-11.1V65l82.1 105.6h12.9V60.2l13-12.4h-40.8l15.7 12.4v76.4l-69.3-88.8zM1460.8 82V53.9c-7.1-3-22.3-7.6-41.7-7.6s-67.8 12.2-67.8 62.7 43.6 63.8 67.5 63.8 42.2-11.6 47.6-16v-42.9H1424l22.5 11v23.4c0 6.3-10.4 13.6-26.4 13.6s-46-13.8-46-52.3 26.2-52.2 44.7-52.2c18.6-.1 29.7 9.5 42 24.6zm172.4.1V54.5c-7.2-4.2-25-8.2-38.2-8.2s-42.2 5.6-42.2 34.1 30.7 33.4 41.9 36.8c11.2 3.4 28 9.1 28 25s-15.7 19.6-24.2 19.6-26.6-5.5-46.5-32.5v31.5c8.2 4.9 31.7 11.9 47.2 11.9s44.3-5.5 44.3-35.5-28.7-36.5-37.7-39.3-33.7-6.6-33.7-23.1 17.9-17.7 22.5-17.7 19.3.1 38.6 25zM419.8 223.9l-66.9 160.5-17.5 15.6h53.7l-17.3-15.6 48.5-118.6 50.6 118.6-17.4 15.6h68l-17.2-15.6-69.2-160.5zm773.5 0-66.8 160.5L1109 400h53.7l-17.3-15.6 48.4-118.6 50.7 118.6L1227 400h68.1l-17.2-15.6-69.3-160.5zm704.9 0-66.8 160.5-17.5 15.6h53.7l-17.3-15.6 48.4-118.6 50.7 118.6-17.5 15.6h68.1l-17.3-15.6-69.2-160.5zm-1272-7.2v167.7L608.1 400h138.3v-42.7l-19.3 27.1h-71.6l.1-144.5zm997.3 0v167.7l-18.1 15.6h138.3v-42.7l-19.3 27.1h-71.6l.1-144.5zm-225.5 0v167.7l-18.1 15.6h138.2v-42.7l-19.2 27.1h-71.6l.1-144.5zm-394.6 23.8 18.4-16.6h-48v77h-93.1v-77h-47.9l18.3 16.6v143.9L832.8 400h47.9v-83.1h93.1V400h48l-18.4-15.6zM196 437.8l-14.6-31.5c-.8-1.9-1.2-3.9-1.2-6.1 0-8.7 7.1-15.8 15.8-15.8 8.7 0 15.8 7.1 15.8 15.8 0 2.2-.4 4.2-1.2 6.1L196 437.8m5.7-138.6c-6.6 0-13.4 2.3-16.7 4.8-7.3 5.4-20.4 13-27 12.8 0 3.6 4.9 9.4 13.1 10.9v1.1c0 13.5 10.1 25.6 24.3 25.6 14.2 0 18.6-11.2 18.6-16.5 0-5.3-3.4-9.3-8.5-10.9 2.5 5.3-1 14.2-8.6 14.2s-10.5-8.7-10.5-12.2 4.9-14.8 16.5-14.8 20.8 10.4 20.8 23.9c0 14.7-16.1 26.6-29.1 26.6-13.7 0-31.5-13-37.7-27.5-6.2-14.5-10.1-23.3-20.2-23.3s-15.2 7.8-15.2 13.8c0 6 4.9 12.2 10.9 12.2 6.1 0 9.3-4.9 9.9-6.7-4.9.8-11.8.5-11.8-5.4s8.9-6.7 10.8-.5c1.7 5.5 7.5 29.9 26.3 42.7-.7 5.3 1.5 15.1 5.3 18.8 1.3-6.4 3.9-10.6 6.2-13.1 4.5 1.4 9.5 2.2 15 2.2 23.2 0 44-17.5 44-40.1.1-22.5-16.1-38.6-36.4-38.6zm-2-9.8c25.2-1 43.3 15.2 47.8 37.6L360.2 87.7 322 7.7 199.7 289.4zm-11.9-20.5c0 21.4-17.4 38.7-38.7 38.7s-38.7-17.4-38.7-38.7c0-5.6 1.2-10.8 3.3-15.6l-13.4-8.3 2.4-15.4c-15.9-4.8-27.5-19.6-27.5-37.1 0-21.4 17.4-38.7 38.7-38.7s38.7 17.4 38.7 38.7c0 5.4-1.1 10.6-3.2 15.3l13.4 8.3-2.3 15.8c15.8 4.8 27.3 19.6 27.3 37zm-29-25.9-3.4 23 19.7 12.2c1-2.9 1.6-6 1.6-9.2.1-11.9-7.4-22.1-17.9-26zm-11-1.7c-7.3.3-13.9 3.5-18.7 8.5l16 9.9 2.7-18.4zm-24.2-74.7-3.6 23.1 19.8 12.3c1.1-2.9 1.7-6.1 1.7-9.4 0-11.9-7.5-22.1-17.9-26zm-8.3 53.5c7.4-.4 14-3.7 18.7-8.7l-15.9-9.8-2.8 18.5zm-21.5-46.6 16 9.9 2.8-18.5c-7.4.3-14 3.5-18.8 8.6zm10.5 45 3.6-23.2-20-12.4c-1.1 3-1.7 6.2-1.7 9.6 0 11.9 7.6 22.1 18.1 26zm15.3 25.4c7.1-8.4 17.7-13.7 29.5-13.7h.4l1.2-8.5-7.1-4.4c-7.1 8.5-17.8 14-29.7 14h-.3l-1.3 8.2 7.3 4.4zm20.3 51.1 3.5-23.4-20.2-12.4c-1.1 3-1.8 6.3-1.8 9.7 0 12 7.8 22.3 18.5 26.1zm29.5-7.4-15.8-9.7-2.7 18.6c7.3-.5 13.8-3.8 18.5-8.9zM152.6 80.3c-1.4 21.1 6.2 38.5 15.2 48.9-10.6-.9-18.3-6.2-23.6-16.2-3 7.7-5.9 24.7-2.4 39-7.9-5.5-17.5-8.7-27.8-8.7-19.5 0-36.4 11.4-44.3 27.9-1.8-3.8-6.8-14-10.1-22.1 9.1-4.4 20.8-12.4 32.6-27 11.7-14.6 12.2-33.2 1.1-33.2s-9 13.4-3.2 18.7c-4.3-.8-18-.6-26.9 4.1-8.8 4.7-11.8 16.9-9.9 24-2-2-5-3.6-12.5-2.4-7.4 1.2-12.7-4-13.1-10.6 11.3 5 17.5-14.7 19.2-31.5-4.9.1-9.9 2.2-13.3 4.1-3.4 1.9-2.6 4.7.5 9.7-5.9-4.5-14.4-4.5-17.8-1.5-2.9 2.6-2.9 7.5-.5 14.5-14.9-8.4-18.4-21.4-14-38 .3 1.5 1.7 7.3 5.1 8.7 24.8-10 28.2-30.5 27.3-43.4C62.4 36.8 82.9 18.7 99 0c.3 4.1 1.5 15.1-2 22.8 27.4-1.4 42.8 11.6 69.7 11.1-6.7 5.9-15.9 8.4-26.9 7.8 5.5 1.6 12.4 12.3 15.9 18.3s12.9 21.8 30.2 29.2c-12.2 1.9-24.9-.6-33.3-8.9zM59.9 50.7l-18.8 9.2 7.3 5.5 11.5-14.7z" fill="#fff"/>
</svg>
