<?xml version="1.0" encoding="utf-8"?>
<!-- Generator: Adobe Illustrator 24.1.2, SVG Export Plug-In . SVG Version: 6.00 Build 0)  -->
<svg xmlns:cc="http://creativecommons.org/ns#" xmlns:dc="http://purl.org/dc/elements/1.1/" xmlns:inkscape="http://www.inkscape.org/namespaces/inkscape" xmlns:rdf="http://www.w3.org/1999/02/22-rdf-syntax-ns#" xmlns:sodipodi="http://sodipodi.sourceforge.net/DTD/sodipodi-0.dtd" xmlns:svg="http://www.w3.org/2000/svg" xmlns="http://www.w3.org/2000/svg" xmlns:xlink="http://www.w3.org/1999/xlink" version="1.1" id="svg3009" x="0px" y="0px" width="2000px" height="291px" viewBox="0 0 2000 291" style="enable-background:new 0 0 2000 291;" xml:space="preserve">
<path d="M104.5,49l5.7,19.5h8.3v72H1c-0.7,0-1,0.3-1,1v9c0,0.7,0.3,1,1,1h129c0,0-11.5,5.4-11.5,21v70h72.7  c60.6,0,97.3-45,97.3-96.9c0-55.9-42-96.6-94.7-96.6H104.5z M140.5,68.5h52.6c46.3,0,74.6,36.4,74.6,77.4  c0,43.7-33.1,77.2-72.3,77.2h-54.8v-55.6c0-8.5,6.8-16,15.5-16h27c0.6,0,1-0.3,1-1v-9c0-0.7-0.3-1-1-1h-42.5V68.5z M401,58.1  c-51.2,0-87.6,41.6-87.6,87.3c0,53,42.6,88.4,87.6,88.4c45.7,0,87.8-36.8,87.8-87.8C488.8,99.3,452,58.1,401,58.1z M401,77.5  c42.6,0,66.7,33,66.7,68.9c0,36.7-27.6,67.8-66.1,67.8c-39,0-67.4-30.7-67.4-68.8C334.1,107.7,362.7,77.5,401,77.5L401,77.5z   M648.2,194.2c-11.7,12.2-28.2,19.9-47.3,19.9c-39,0-67.4-30.7-67.4-68.8c0-37.6,28.6-67.8,66.8-67.8c20.7,0,37,7.8,48.3,19.9  l13.7-13.8c-15.5-15.6-37.1-25.4-62-25.4c-51.2,0-87.6,41.6-87.6,87.3c0,53,42.6,88.4,87.6,88.4c23.3,0,45.7-9.6,62-25.8  L648.2,194.2z M745,228.8V81.5h-59L680.4,62H833l-6,19.5h-60.5v147.3H745z M920.1,58.1c-51.2,0-87.6,41.6-87.6,87.3  c0,53,42.6,88.4,87.6,88.4c45.7,0,87.8-36.8,87.8-87.8C1007.8,99.3,971,58.1,920.1,58.1z M920,77.5c42.6,0,66.7,33,66.7,68.9  c0,36.7-27.6,67.8-66.1,67.8c-39,0-67.4-30.7-67.4-68.8C853.2,107.7,881.8,77.5,920,77.5L920,77.5z M1025.2,62l5.8,19.5h8.5V229  h21.5v-63.7h43l42.3,63.7h24.9l-43.5-65.3c18.3-4.9,39.3-20.4,39.3-50.3c0-24.1-18.9-51.4-51-51.4H1025.2z M1061,81.5h54  c19.6,0,30.7,14.5,30.7,31.4c0,17.3-10.7,32.8-30.7,32.8h-54V81.5z M1237.8,62h22.6l44.9,142.6L1351.3,62h21.1l45.9,143.7L1463.1,62  h22.8l-54.6,167h-25.8l-44.4-133.8L1317.6,229h-25L1237.8,62z M1643,0v140.5h-105V62h-21.5v78.5H1490c-0.7,0-1,0.4-1,1v9  c0,0.7,0.3,1,1,1h37.4c0,0-10.9,7-10.9,17.7V291h21.5V167.5c0-8.5,6.4-16,16-16h99.4c0,0-10.4,7.3-10.4,19V229h21.5v-77.5h49.4  c0,0-8,6.1-8,16.4c0,30.7,39.9,72.6,90.7,72.6c48.4,0,92.5-38.8,94.1-89H1999l1-1v-9l-1-1h-108.3c-2.1-51.5-45.1-89.6-93.9-89.6  c-55.3,0-92.9,42.9-95,89.6h-37.3V0H1643z M1796.1,69.5c33.3,0,70.6,21.8,74.2,71H1722C1724.9,97.7,1757,69.5,1796.1,69.5z   M1722,151.5h148.4c-2.9,46.1-40.2,70.6-74.2,70.6C1751.7,222.1,1725.1,189.5,1722,151.5z"/>
</svg>
