<?xml version="1.0" encoding="utf-8"?>
<!-- Generator: Adobe Illustrator 24.1.2, SVG Export Plug-In . SVG Version: 6.00 Build 0)  -->
<svg xmlns="http://www.w3.org/2000/svg" xmlns:xlink="http://www.w3.org/1999/xlink" version="1.1" x="0px" y="0px" width="1200px" height="150.9px" viewBox="0 0 1200 150.9" style="enable-background:new 0 0 1200 150.9;" xml:space="preserve">
<style type="text/css">
	.st0{fill:#FFFFFF;}
	.st1{opacity:0.9;fill:#FF7B22;}
</style>
<path class="st0" d="M663.4,15.9V135c0,8.8,7.1,15.9,22.9,15.9h64.4c15.6,0,22.9-7.1,22.9-15.9V15.9c0-8.8-7-15.9-22.9-15.9h-64.4  C670.5,0,663.4,7.1,663.4,15.9z M729.1,125.2h-21.2V25.8h21.2V125.2z M110.1,99.4V135c0,8.8-7.3,15.9-22.9,15.9H22.9  C7.1,150.9,0,143.8,0,135V15.9C0,7.1,7.1,0,22.9,0h64.4c15.9,0,22.9,7.1,22.9,15.9v35H65.7V25.8H44.5v99.4h21.2V99.4H110.1z   M411.1,99.4V135c0,8.8-7.3,15.9-22.9,15.9h-64.4c-15.8,0-22.9-7.1-22.9-15.9V15.9C300.9,7.1,308,0,323.8,0h64.4  c15.9,0,22.9,7.1,22.9,15.9v35h-44.5V25.8h-21.2v99.4h21.2V99.4H411.1z M606.6,44.8V25.8h-21.2v99.4h21.2V90.5h-15.1V64.3h59.6V135  c0,8.8-7.3,15.9-22.9,15.9h-64.4c-15.8,0-22.9-7.1-22.9-15.9V15.9C540.9,7.1,548,0,563.8,0h64.4c15.9,0,22.9,7.1,22.9,15.9v28.9  H606.6z M232.9,0v150.9h-44.3V86h-21.7v64.9h-44.3V0h44.3v57.9h21.7V0H232.9z M289.7,150.9h-44.3V0h44.3V150.9z M975.4,150.9h-44.3  V0h44.3V150.9z M490.9,150.9h43.2L498.5,0h-49.3l-35.6,150.9h43.2l3.8-22.9h26.6L490.9,150.9z M464.9,101.3l8.8-53.2l8.9,53.2H464.9  z M880.4,27v32.6h36.7v26.7h-36.7v64.6h-44V0h89.9v27H880.4z M1200,123.9v27h-90.2V0h89.9v27h-45.9v32.6h38.4v26.7h-38.4v37.6H1200z   M1100.5,149.2v1.7H1056L1035.3,94V65.9h15V25.8h-19.2v125.2h-44.3V0h83.1c18.7,0,24.9,7.6,24.9,15.4v53.8c0,7.6-4.9,13.8-19.2,14  L1100.5,149.2z"/>
<path class="st1" d="M746.6,150.9c-5.4-12.5-1.9-19,9.5-34.5s1.5-33.1,0-36c14.7,6.4,24.1,21,25.7,33.9c23.4-15.3,0.6-40,1.2-51.9  c0.7-14.3,30-16.4,22.3-40.2c7.8,7,17,14.4,17.4,21.2c0.4,6.9-17.2,17.2-1.1,28.9c16.1,11.7,27.5-9.9,27-13.5  c13.9,17.2,0.8,28.5-9.5,39.8s-14.4,18.7-7.9,30.9c3.7-13.2,14.4-16.7,17.3-17.2c-7.5,19.3,6.1,38.6,6.1,38.6H746.6z"/>
</svg>
