<?xml version="1.0"?>
<svg xmlns="http://www.w3.org/2000/svg" width="2000" height="500.3" xml:space="preserve">
  <path d="M208.4 28.3c-3.2-9-8.4-11.6-13.5-11.6h-9c-1.3 0-1.9-1-1.9-2.3V6.1c0-1.6 1-2.3 2.6-2.3 2.6 0 12.2 1 41.2 1 23.2 0 36.7-1 39.9-1 1.9 0 2.6.6 2.6 2.3v8.1c0 1.6-.6 2.6-2.9 2.6h-6.1c-6.4 0-10 4.5-7.7 11.3l47.3 148.8.6.3c2.6-6.8 45.4-125.3 46.1-137.5 0-5.8-2.6-12.9-5.8-17.1-2.6-3.9-7.1-5.8-10.9-5.8h-6.8c-1.3 0-2.3-.6-2.3-2.3V6.4c0-1.6.6-2.6 2.6-2.6 2.6 0 14.2 1 41.9 1 27.1 0 39.3-1 42.2-1 1.9 0 2.3 1 2.3 2.9v7.4c0 1.6-.6 2.6-2.3 2.6h-11.3c-6.4 0-8.7 7.1-7.1 12.6l46.4 148.8h1.3c9.7-28.3 46.4-134.6 46.4-152.3 0-4.5-3.2-9-10.9-9h-8.7c-1.9 0-2.3-1-2.3-2.6V6.4c0-1.6.6-2.6 2.6-2.6 3.2 0 14.2 1 34.1 1 18 0 27.7-1 30.3-1 1.3 0 1.9.6 1.9 1.6v8.7c0 1.6-.3 2.6-2.3 2.6h-6.8c-5.2 0-10.9 3.2-14.2 10.6-3.2 7.1-68.9 187.4-75.4 203.5-1.3 3.2-3.9 8.4-8.4 8.4s-6.8-3.2-8.1-7.1L357.9 62.8h-1.3c-2.9 9-59.9 166.8-61.2 170.4-1.3 3.2-4.5 6.1-8.4 6.1-3.2 0-5.5-1.9-6.4-5.2L208.4 28.3zm506.9-2.5c24.2 19.6 43.8 51.5 43.8 95.3 0 23.8-6.4 48.9-23.8 70.8-20.6 25.8-48.3 45.7-96.6 45.7-19.3 0-47-5.8-72.8-21.3-22.9-13.8-47-48.9-47-95.3 0-19.3 5.5-49.9 29.6-79.9C576.8 6.4 611.6 0 639.3 0c23.8 0 49.6 4.5 76 25.8zm-123.6 6.4c-19.6 19-29 52.2-29 77.9 0 83.7 51.5 113.4 78.6 113.4 65 0 75.4-72.1 75.4-99.2 0-70.2-47.7-110.1-78.6-110.1-5.9 0-24.5-3.3-46.4 18zm406.8 84.1c0-9.7 0-89.5-.6-90.8h-1.3c-2.6 4.5-43.2 98.5-47 106.9-4.8 10.3-37.7 86.3-39.3 89.5-1.3 2.6-3.9 7.1-7.1 7.1-1.9 0-3.9-1.9-5.2-5.8-1.3-1.9-43.2-102.4-45.1-107.6-5.8-14.8-35.4-86.9-39.3-90.8-1.3 4.5-1.6 85.7-1.6 89.5 0 3.9-.3 58.6 1.6 79.5 1.3 14.8 5.2 27.1 15.5 27.1h14.2c1.9 0 2.6 1.3 2.6 2.3v8.1c0 1.3-.6 2.6-3.2 2.6-3.2 0-12.2-1-36.7-1-27.7 0-38.6 1-41.9 1-2.6 0-2.6-.6-2.6-2.9v-8.1c0-.6 0-1.9 1.9-1.9h14.8c10.9 0 14.5-11.6 16.1-22.9 2.9-22.5 4.8-101.8 4.8-107.6V35.4c0-11.6-1.6-18.7-15.8-18.7h-14.2c-1.9 0-2.6-1.3-2.6-2.3V5.8c0-.6.6-1.9 2.6-1.9 3.2 0 11.6 1 45.7 1 15.5 0 24.5-1 28.3-1 3.9 0 6.1 1.3 7.7 5.5 11.6 30.3 56.7 137.2 66.3 163.6 2.9-5.8 25.8-58.9 34.1-77.9C957 81.6 986 15.2 987.6 8.8c1-3.2 4.8-3.9 12.6-3.9 47 .3 58-1 61.8-1 1.3 0 1.9 1.3 1.9 2.9v6.8c0 1.9-.6 3.2-2.6 3.2h-14.2c-8.4 0-9 5.8-9.3 12.6-.3 7.1-.3 71.5-.3 79.9v22.5c0 19.3.6 66.3.6 71.8.3 12.2 3.2 17.4 9 17.4h17.4c1.9 0 1.9 1.3 1.9 2.3v7.4c0 1.9 0 3.2-2.6 3.2-3.9 0-19.3-1-47.7-1-31.6 0-43.8 1-48.3 1-1.9 0-2.6-1.3-2.6-2.9v-7.4c0-1.9.6-2.6 2.6-2.6h20c5.8 0 8.4-1.9 9.3-11.3.3-3.2 1-49.6 1-75.4v-18zm155.6 23.1c.3 17.4 1 48.9 1 54.7 0 16.7 5.8 23.2 12.9 25.1 5.2 1.3 12.9 2.6 25.1 2.6 5.8 0 20.6-.6 27.1-1.3 5.8-.6 18-3.9 26.4-10.9 5.8-5.2 23.8-26.4 29.9-34.1 1.3-1.6 2.3-1.9 3.5-1.3l5.2 3.2c1 .6 1.3 1.6.6 3.2l-15.5 48.3c-1 2.9-3.2 4.8-7.1 4.8-1.6 0-8.7-.3-28.7-.6-20.3 0-53.5-.3-107.2-.3-11.9 0-20.6.3-27.4.3-6.4.3-10.9.6-13.8.6-1.9 0-2.6-.6-2.6-2.6v-7.7c0-1.9.6-2.6 3.2-2.6h10.9c14.8 0 16.1-1.9 16.1-13.8V98.9c0-26.4-.6-66.3-1.3-70.8-1.3-8.7-4.5-11.3-14.2-11.3H1086c-1.3 0-1.9-.6-1.9-2.3V6.1c0-1.6.3-2.3 1.9-2.3 7.1 0 18.7 1.3 45.1 1h9c14.2 0 88.2-.6 102.4-.6 5.2 0 11.3-.3 12.9-.3 1.6 0 2.3.6 2.6 1.9 1.3 4.2 13.5 48 14.8 51.2.6 1.9.3 2.9-1 3.5l-5.8 2.6c-1 .3-1.9 0-2.9-1.6-1.3-1.9-27.7-31.6-35.4-36.1-6.8-3.9-15.5-8.1-24.5-8.4l-48.9-1.3-.6 93.1c9.7 0 32.8-.6 36.7-1.6 7.1-1.3 10.9-3.9 14.8-11.6 1.9-4.2 5.2-12.2 5.2-18 0-1.9 1.3-2.6 2.6-2.6l8.4.6c1.3 0 2.3.6 1.9 2.6-.6 5.2-.6 26.4-.6 34.8 0 12.9 1.3 28.3 1.9 35.4 0 1.6-.6 1.9-2.6 2.3l-7.1 1.3c-1.3.3-1.9-.3-2.6-2.3-1.3-5.2-3.5-12.2-5.2-16.1-2.9-6.4-9-10.9-16.1-11.6-11.6-1.3-27.1-1.9-37.4-1.9l.5 19.3zm181.1-52.1c0 54.7 2.6 99.8 3.2 109.8.6 16.1 4.5 23.8 16.1 23.8h8.4c2.6 0 2.6 1.3 2.6 2.9v7.4c0 1.9 0 2.6-2.6 2.6-3.2 0-22.5-1-34.8-1-8.4 0-30.3 1-33.5 1-1.3 0-1.9-.6-1.9-2.9v-8.1c0-.6.6-1.9 1.9-1.9h10.9c8.4 0 12.9-7.1 14.5-26.7.3-5.8 2.3-50.9 2.3-102.4V50.9c0-19.3-10.9-34.1-25.1-34.1h-10.3c-1.3-.3-1.9-1-1.9-2.3V5.8c0-1.3.6-1.9 1.9-1.9 1.6 0 4.2.3 10 .6s14.5.3 28.7.3c5.5 0 10.3-.3 14.2-.6 4.2 0 7.1-.3 9-.3 3.9 0 5.8 1 7.7 2.9 3.2 3.2 66.3 82.4 72.8 91.5 4.5 5.2 54.7 67.6 59.9 74.1h1.3v-33.5c0-28.3 0-44.4-.6-60.5-.6-12.2-1.9-43.8-3.5-49.3-2.3-7.7-9.3-12.2-17.1-12.2H1459c-1.9 0-1.9-1.3-1.9-2.9V6.4c0-1.9 0-2.6 2.6-2.6 3.9 0 14.2 1 36.1 1 19.3 0 27.1-1 30.9-1 2.6 0 3.2 1.3 3.2 2.3v7.4c0 1.9-.6 3.2-1.9 3.2h-9c-6.4 0-9.7 5.2-10.6 17.1-1.6 21.9-4.8 76-4.8 108.8v85c0 4.5 0 9-3.9 9-4.5 0-8.4-2.6-10.9-5.2-2.6-3.2-20-23.2-39.9-47-22.5-27.7-47.7-58-51.5-63.1-4.5-4.5-56-68.9-59.9-73.4h-1.9v39.4zm338.1-30c7.8 6.3 14.1 16.6 14.1 30.7 0 7.7-2.1 15.7-7.7 22.8-6.6 8.3-15.5 14.7-31.1 14.7-6.2 0-15.1-1.9-23.4-6.8-7.4-4.5-15.1-15.7-15.1-30.7 0-6.2 1.8-16.1 9.5-25.7 9.1-11.2 20.3-13.3 29.2-13.3 7.7 0 16 1.5 24.5 8.3zm-39.8 2.1c-6.3 6.1-9.3 16.8-9.3 25.1 0 26.9 16.6 36.5 25.3 36.5 20.9 0 24.2-23.2 24.2-31.9 0-22.6-15.3-35.4-25.3-35.4-1.8-.1-7.8-1.1-14.9 5.7zm93.9 28c2.9 0 9.4-.1 11.1-.5 2.1-.2 3.7-1.5 5.5-4 .8-1.3 1.5-3.4 1.9-5.3.1-.4.4-.8.8-.8l2.1.2c.4 0 .6.2.6.6-.2 1.9-.2 10.4-.2 11.8 0 3.7.4 8.7.6 10.8.1.7-.2.9-.6 1l-2.3.4c-.4 0-.7-.2-.8-.8-.1-.7-1-3.9-1.6-4.9-1.2-2.3-3.1-3.8-5.2-4.2-3.9-.6-8.8-.6-11.9-.6v25.8c0 2.9.8 3.3 3.3 3.3h5.6c.6 0 .8.2.8.7v2.6c0 .6-.2.8-.8.8-1 0-5.2-.3-15.3-.3-9.3 0-13.3.3-14.7.3-.4 0-.6-.2-.6-.7v-2.8c0-.4.2-.6.6-.6h4.1c2.5 0 3.3-.4 3.4-2.2.1-2.1.3-15.1.3-32.9v-7.2c0-4.6-.2-19.3-.2-20.4 0-1.9-1.5-2.9-4.1-2.9h-5.2c-.4 0-.8-.2-.8-.5v-3c0-.4.4-.6.8-.6 1 0 5 .3 16.8.3 1.5 0 28.8-.2 35.4-.2 1.9 0 3.5-.4 3.9-.4.4.2.6.6.6 1.5.4 1.7 3.7 15.9 4.1 17.2.1.4 0 .7-.3.8l-2 .8c-.4.2-.6 0-1.2-.8-1-1.9-3.7-5.4-7.5-9.5-1.7-2.3-4.3-4.1-7-4.8-2.7-.5-16.2-.9-20.1-.9v32.9zm-141.3 66.7h-2.9c-3.3 0-10.8 0-15.1 1.5-3.3 1.5-7.2 8.3-9.2 11.8-.3.5-.6.9-1.1.7l-2.1-.7c-.4-.2-.5-.5-.4-1 1-3.9 4.6-17.6 5-19.1.2-1.5.8-1.9 1.2-1.9.6 0 1 .4 1.7 1 2.1 2.1 4.1 2.6 7 2.7 5.6.2 9.9.6 20.1.6h5.6c11.4 0 15.7-.4 20.5-.6 2-.1 5.9-1.6 7.5-2.7.8-.6 1.2-1 1.9-1s.8.4 1 1.7c.2 1.9 2.3 14.7 3.1 19.7.1.6-.1.8-.4.9l-2.1.7c-.4.1-.6-.2-.9-.8-1.4-2.9-5.3-9.5-8.2-11.6-2.9-1.7-12.2-1.9-15.9-1.9h-2.9v55.2c0 7.9 1 9.9 3.5 9.9h6c.4 0 .6.4.6.9v2.2c0 .6-.2 1-1 1-1 0-4.3-.3-15.5-.3-10.6 0-14.9.3-16.4.3-.6 0-.8-.2-.8-.9V220c0-.6.3-.8.7-.8h5.9c2.1 0 3.3-1.2 3.4-2.8.3-2.7.3-34.4.3-36.5v-25.8zm84.4 33c-1.1 0-1.5.4-1.5 1.3v4.5c0 3.7.2 15.7.4 22.9.1 2.5 1.2 3.5 3.5 3.5h3.7c.8 0 1 .2 1 .7v2.4c0 .6-.2 1-1 1-1.9 0-5.4-.3-13.9-.3-10.1 0-13.3.3-15.3.3-.8 0-1-.4-1-.9v-2.4c0-.6.2-.8 1-.8h5.4c2.5 0 2.9-2.5 2.9-4.9 0-5 .2-16.8.2-23.4v-13.3c0-3.1-.2-15.9-.2-17.5 0-5.2-.6-6.6-3.9-6.6h-4.6c-.8 0-1-.4-1-.9v-2.2c0-.4.2-1 1-1 1.9 0 5.2.3 15.3.3 9.3 0 13-.3 14.9-.3.8 0 1 .4 1 .9v2.2c0 .6-.2 1-1 1h-3.7c-3.7 0-4.1 1.7-4.2 5.7-.1 1.4-.5 15.1-.5 17.8v4.1c0 1 .3 1.5 1.2 1.5h34.2c1.7 0 2.1-.3 2.1-1.5v-3.1c0-3.7-.4-18.2-.5-19.4-.1-3.3-.5-5.2-2.8-5.2h-4.8c-.7 0-.8-.3-.8-.9v-2.4c0-.5.1-.8.8-.8 1.9 0 6.4.3 14.7.3 7.9 0 12-.3 13.7-.3 1 0 1.2.4 1.2.9v2.2c0 .6-.2 1-1.2 1h-3.7c-3.1 0-3.3 1.7-3.3 5.3 0 1.5-.2 15.5-.2 18.8v11.2c0 4.6.2 19.3.2 25.2 0 3.7 1 5.2 4.1 5.2h4.1c.6 0 .8.3.8.7v2.4c0 .6-.2 1-1 1-1.7 0-5.2-.3-14.1-.3-9.7 0-13 .3-15.9.3-.6 0-.8-.5-.8-.9V220c0-.5.1-.8.8-.8h5.6c2.5 0 2.6-1.9 2.7-4.7.2-5 .4-21.5.4-23.4v-2.9c0-.9-.8-1.2-2.3-1.2h-33.7zm100 6c.1 5.6.3 15.7.3 17.6 0 5.4 1.9 7.5 4.1 8.1 1.7.4 4.1.8 8.1.8 1.9 0 6.6-.2 8.7-.4 1.9-.2 5.8-1.2 8.5-3.5 1.9-1.7 7.7-8.5 9.6-11 .4-.5.7-.6 1.1-.4l1.7 1c.3.2.4.5.2 1l-5 15.5c-.3.9-1 1.6-2.3 1.6-.5 0-2.8-.1-9.2-.2-6.5 0-17.2-.1-34.5-.1-3.8 0-6.6.1-8.8.1-2.1.1-3.5.2-4.5.2-.6 0-.8-.2-.8-.8v-2.5c0-.6.2-.8 1-.8h3.5c4.8 0 5.2-.6 5.2-4.5V180c0-8.5-.2-21.3-.4-22.8-.4-2.8-1.4-3.6-4.6-3.6h-3.9c-.4 0-.6-.2-.6-.7v-2.7c0-.5.1-.7.6-.7 2.3 0 6 .4 14.5.3h2.9c4.6 0 28.4-.2 32.9-.2 1.7 0 3.6-.1 4.1-.1.5 0 .7.2.8.6.4 1.3 4.3 15.4 4.8 16.5.2.6.1.9-.3 1.1l-1.9.8c-.3.1-.6 0-.9-.5-.4-.6-8.9-10.1-11.4-11.6-2.2-1.2-5-2.6-7.9-2.7l-15.7-.4-.2 29.9c3.1 0 10.6-.2 11.8-.5 2.3-.4 3.5-1.2 4.8-3.7.6-1.3 1.7-3.9 1.7-5.8 0-.6.4-.8.8-.8l2.7.2c.4 0 .7.2.6.8-.2 1.7-.2 8.5-.2 11.2 0 4.1.4 9.1.6 11.4 0 .5-.2.6-.8.7l-2.3.4c-.4.1-.6-.1-.8-.7-.4-1.7-1.1-3.9-1.7-5.2-.9-2.1-2.9-3.5-5.2-3.7-3.7-.4-8.7-.6-12-.6l.3 6.2zM237 377.3c0-9.7 0-89.5-.6-90.8h-1.3c-2.6 4.5-43.2 98.5-47 106.9-4.8 10.3-37.7 86.3-39.3 89.5-1.3 2.6-3.9 7.1-7.1 7.1-1.9 0-3.9-1.9-5.2-5.8-1.3-1.9-43.2-102.4-45.1-107.6-5.8-14.8-35.4-86.9-39.3-90.8-1.3 4.5-1.6 85.7-1.6 89.5 0 3.9-.3 58.6 1.6 79.5 1.3 14.8 5.2 27.1 15.5 27.1h14.2c1.9 0 2.6 1.3 2.6 2.3v8.1c0 1.3-.6 2.6-3.2 2.6-3.2 0-12.2-1-36.7-1-27.7 0-38.6 1-41.9 1-2.6 0-2.6-.6-2.6-2.9v-8.1c0-.6 0-1.9 1.9-1.9h14.8c10.9 0 14.5-11.6 16.1-22.9 2.9-22.5 4.8-101.8 4.8-107.6v-55.1c0-11.6-1.6-18.7-15.8-18.7H7.7c-1.9 0-2.6-1.3-2.6-2.3v-8.7c0-.6.6-1.9 2.6-1.9 3.2 0 11.6 1 45.7 1 15.5 0 24.5-1 28.3-1 3.9 0 6.1 1.3 7.7 5.5 11.6 30.3 56.7 137.2 66.3 163.6 2.9-5.8 25.8-58.9 34.1-77.9 5.8-13.5 34.8-79.9 36.4-86.3 1-3.2 4.8-3.9 12.6-3.9 47 .3 58-1 61.8-1 1.3 0 1.9 1.3 1.9 2.9v6.8c0 1.9-.6 3.2-2.6 3.2H286c-8.4 0-9 5.8-9.3 12.6-.3 7.1-.3 71.5-.3 79.9v22.5c0 19.3.6 66.3.6 71.8.3 12.2 3.2 17.4 9 17.4h17.4c1.9 0 1.9 1.3 1.9 2.3v7.4c0 1.9 0 3.2-2.6 3.2-3.9 0-19.3-1-47.7-1-31.6 0-43.8 1-48.3 1-1.9 0-2.6-1.3-2.6-2.9v-7.4c0-1.9.6-2.6 2.6-2.6h20c5.8 0 8.4-1.9 9.3-11.3.3-3.2 1-49.6 1-75.4v-17.9zm275.1-90.5c24.2 19.6 43.8 51.5 43.8 95.3 0 23.8-6.4 48.9-23.8 70.8-20.6 25.8-48.3 45.7-96.6 45.7-19.3 0-47-5.8-72.8-21.3-22.9-13.8-47-48.9-47-95.3 0-19.3 5.5-49.9 29.6-79.9 28.3-34.8 63.1-41.2 90.8-41.2 23.9.1 49.6 4.6 76 25.9zm-123.6 6.4c-19.6 19-29 52.2-29 77.9 0 83.7 51.5 113.4 78.6 113.4 65 0 75.4-72.1 75.4-99.2 0-70.2-47.7-110.1-78.6-110.1-5.8 0-24.5-3.2-46.4 18zM700 267.5c0-1.9.6-2.6 2.6-2.6 2.6 0 17.4 1 38 1 27.1 0 35.4-1 38-1 1.9 0 2.6.6 2.6 2.3v8.1c0 1.6-.6 2.6-2.6 2.6h-7.7c-7.7 0-16.1 3.2-23.5 14.8-10.6 17.1-29.9 67.3-39 88.6-6.4 14.2-45.1 108.2-48.3 115-1.3 2.6-3.9 4.2-6.4 4.2-3.9 0-5.5-3.5-7.1-7.4-10.9-27.4-38-101.1-48.9-131.1-8.4-23.2-22.5-64.4-26.1-73.7-2.9-7.1-6.8-10.3-13.8-10.3h-7.7c-1.3 0-1.9-1-1.9-2.9v-7.4c0-1.9.6-2.6 1.9-2.6 3.2 0 14.2 1 47.7 1 30.3 0 45.1-1 47.7-1 2.6 0 3.2 1 3.2 2.6v7.1c0 2.3-.6 3.2-2.6 3.2h-15.5c-8.4 0-13.5 3.2-13.5 8.1 0 2.6 0 6.4 1 10.9 2.3 11.6 14.5 49.6 20.9 68.3 4.5 12.2 21.9 63.1 27.1 80.5h.6v-.6c7.7-18 28.3-71.5 31.6-81.2 5.2-15.1 25.1-63.8 25.1-77 0-3.9-3.2-9-12.2-9h-8.7c-1.3 0-2.3-1.3-2.3-2.9v-7.6zm159.2 133c.3 17.4 1 48.9 1 54.7 0 16.7 5.8 23.2 12.9 25.1 5.2 1.3 12.9 2.6 25.1 2.6 5.8 0 20.6-.6 27.1-1.3 5.8-.6 18-3.9 26.4-10.9 5.8-5.2 23.8-26.4 29.9-34.1 1.3-1.6 2.3-1.9 3.5-1.3l5.2 3.2c1 .6 1.3 1.6.6 3.2L975.4 490c-1 2.9-3.2 4.8-7.1 4.8-1.6 0-8.7-.3-28.7-.6-20.3 0-53.5-.3-107.2-.3-11.9 0-20.6.3-27.4.3-6.4.3-10.9.6-13.8.6-1.9 0-2.6-.6-2.6-2.6v-7.7c0-1.9.6-2.6 3.2-2.6h10.9c14.8 0 16.1-1.9 16.1-13.8V359.9c0-26.4-.6-66.3-1.3-70.8-1.3-8.7-4.5-11.3-14.2-11.3h-12.2c-1.3 0-1.9-.6-1.9-2.3v-8.4c0-1.6.3-2.3 1.9-2.3 7.1 0 18.7 1.3 45.1 1h9c14.2 0 88.2-.6 102.4-.6 5.2 0 11.3-.3 12.9-.3 1.6 0 2.3.6 2.6 1.9 1.3 4.2 13.5 48 14.8 51.2.6 1.9.3 2.9-1 3.5l-5.8 2.6c-1 .3-1.9 0-2.9-1.6-1.3-1.9-27.7-31.6-35.4-36.1-6.8-3.9-15.5-8.1-24.5-8.4l-48.9-1.3-.6 93.1c9.7 0 32.8-.6 36.7-1.6 7.1-1.3 10.9-3.9 14.8-11.6 1.9-4.2 5.2-12.2 5.2-18 0-1.9 1.3-2.6 2.6-2.6l8.4.6c1.3 0 2.3.6 1.9 2.6-.6 5.2-.6 26.4-.6 34.8 0 12.9 1.3 28.3 1.9 35.4 0 1.6-.6 1.9-2.6 2.3L920 413c-1.3.3-1.9-.3-2.6-2.3-1.3-5.2-3.5-12.2-5.2-16.1-2.9-6.4-9-10.9-16.1-11.6-11.6-1.3-27.1-1.9-37.4-1.9l.5 19.4zm372.5-23.2c0-9.7 0-89.5-.6-90.8h-1.3c-2.6 4.5-43.2 98.5-47 106.9-4.8 10.3-37.7 86.3-39.3 89.5-1.3 2.6-3.9 7.1-7.1 7.1-1.9 0-3.9-1.9-5.2-5.8-1.3-1.9-43.2-102.4-45.1-107.6-5.8-14.8-35.4-86.9-39.3-90.8-1.3 4.5-1.6 85.7-1.6 89.5 0 3.9-.3 58.6 1.6 79.5 1.3 14.8 5.2 27.1 15.5 27.1h14.2c1.9 0 2.6 1.3 2.6 2.3v8.1c0 1.3-.6 2.6-3.2 2.6-3.2 0-12.2-1-36.7-1-27.7 0-38.6 1-41.9 1-2.6 0-2.6-.6-2.6-2.9v-8.1c0-.6 0-1.9 1.9-1.9h14.8c10.9 0 14.5-11.6 16.1-22.9 2.9-22.5 4.8-101.8 4.8-107.6v-55.1c0-11.6-1.6-18.7-15.8-18.7h-14.2c-1.9 0-2.6-1.3-2.6-2.3v-8.7c0-.6.6-1.9 2.6-1.9 3.2 0 11.6 1 45.7 1 15.5 0 24.5-1 28.3-1 3.9 0 6.1 1.3 7.7 5.5 11.6 30.3 56.7 137.2 66.3 163.6 2.9-5.8 25.8-58.9 34.1-77.9 5.8-13.5 34.8-79.9 36.4-86.3 1-3.2 4.8-3.9 12.6-3.9 47 .3 58-1 61.8-1 1.3 0 1.9 1.3 1.9 2.9v6.8c0 1.9-.6 3.2-2.6 3.2h-14.2c-8.4 0-9 5.8-9.3 12.6-.3 7.1-.3 71.5-.3 79.9v22.5c0 19.3.6 66.3.6 71.8.3 12.2 3.2 17.4 9 17.4h17.4c1.9 0 1.9 1.3 1.9 2.3v7.4c0 1.9 0 3.2-2.6 3.2-3.9 0-19.3-1-47.7-1-31.6 0-43.8 1-48.3 1-1.9 0-2.6-1.3-2.6-2.9v-7.4c0-1.9.6-2.6 2.6-2.6h20c5.8 0 8.4-1.9 9.3-11.3.3-3.2 1-49.6 1-75.4v-17.9zm156 23.2c.3 17.4 1 48.9 1 54.7 0 16.7 5.8 23.2 12.9 25.1 5.2 1.3 12.9 2.6 25.1 2.6 5.8 0 20.6-.6 27.1-1.3 5.8-.6 18-3.9 26.4-10.9 5.8-5.2 23.8-26.4 29.9-34.1 1.3-1.6 2.3-1.9 3.5-1.3l5.2 3.2c1 .6 1.3 1.6.6 3.2l-15.5 48.3c-1 2.9-3.2 4.8-7.1 4.8-1.6 0-8.7-.3-28.7-.6-20.3 0-53.5-.3-107.2-.3-11.9 0-20.6.3-27.4.3-6.4.3-10.9.6-13.8.6-1.9 0-2.6-.6-2.6-2.6v-7.7c0-1.9.6-2.6 3.2-2.6h10.9c14.8 0 16.1-1.9 16.1-13.8V359.9c0-26.4-.6-66.3-1.3-70.8-1.3-8.7-4.5-11.3-14.2-11.3h-12.2c-1.3 0-1.9-.6-1.9-2.3v-8.4c0-1.6.3-2.3 1.9-2.3 7.1 0 18.7 1.3 45.1 1h9c14.2 0 88.2-.6 102.4-.6 5.2 0 11.3-.3 12.9-.3 1.6 0 2.3.6 2.6 1.9 1.3 4.2 13.5 48 14.8 51.2.6 1.9.3 2.9-1 3.5l-5.8 2.6c-1 .3-1.9 0-2.9-1.6-1.3-1.9-27.7-31.6-35.4-36.1-6.8-3.9-15.5-8.1-24.5-8.4l-48.9-1.3-.6 93.1c9.7 0 32.8-.6 36.7-1.6 7.1-1.3 10.9-3.9 14.8-11.6 1.9-4.2 5.2-12.2 5.2-18 0-1.9 1.3-2.6 2.6-2.6l8.4.6c1.3 0 2.3.6 1.9 2.6-.6 5.2-.6 26.4-.6 34.8 0 12.9 1.3 28.3 1.9 35.4 0 1.6-.6 1.9-2.6 2.3l-7.1 1.3c-1.3.3-1.9-.3-2.6-2.3-1.3-5.2-3.5-12.2-5.2-16.1-2.9-6.4-9-10.9-16.1-11.6-11.6-1.3-27.1-1.9-37.4-1.9l.5 19.4zm180.9-52.2c0 54.7 2.6 99.8 3.2 109.8.6 16.1 4.5 23.8 16.1 23.8h8.4c2.6 0 2.6 1.3 2.6 2.9v7.4c0 1.9 0 2.6-2.6 2.6-3.2 0-22.5-1-34.8-1-8.4 0-30.3 1-33.5 1-1.3 0-1.9-.6-1.9-2.9v-8.1c0-.6.6-1.9 1.9-1.9h10.9c8.4 0 12.9-7.1 14.5-26.7.3-5.8 2.3-50.9 2.3-102.4v-40.9c0-19.3-10.9-34.1-25.1-34.1h-10.3c-1.3-.3-1.9-1-1.9-2.3v-8.7c0-1.3.6-1.9 1.9-1.9 1.6 0 4.2.3 10 .6s14.5.3 28.7.3c5.5 0 10.3-.3 14.2-.6 4.2 0 7.1-.3 9-.3 3.9 0 5.8 1 7.7 2.9 3.2 3.2 66.3 82.4 72.8 91.5 4.5 5.2 54.7 67.6 59.9 74.1h1.3v-33.5c0-28.3 0-44.4-.6-60.5-.6-12.2-1.9-43.8-3.5-49.3-2.3-7.7-9.3-12.2-17.1-12.2h-10.3c-1.9 0-1.9-1.3-1.9-2.9v-7.4c0-1.9 0-2.6 2.6-2.6 3.9 0 14.2 1 36.1 1 19.3 0 27.1-1 30.9-1 2.6 0 3.2 1.3 3.2 2.3v7.4c0 1.9-.6 3.2-1.9 3.2h-9c-6.4 0-9.7 5.2-10.6 17.1-1.6 21.9-4.8 76-4.8 108.8v85c0 4.5 0 9-3.9 9-4.5 0-8.4-2.6-10.9-5.2-2.6-3.2-20-23.2-39.9-47-22.5-27.7-47.7-58-51.5-63.1-4.5-4.5-56-68.9-59.9-73.4h-1.9v39.2zm295.4-68.9h-9c-10.3 0-33.5 0-47 4.5-10.3 4.5-22.5 25.8-28.7 36.7-1 1.6-1.9 2.9-3.5 2.3l-6.4-2.3c-1.3-.6-1.6-1.6-1.3-3.2 3.2-12.2 14.2-54.7 15.5-59.3.6-4.5 2.6-5.8 3.9-5.8 1.9 0 3.2 1.3 5.2 3.2 6.4 6.4 12.9 8.1 21.9 8.4 17.4.6 30.9 1.9 62.5 1.9h17.4c35.4 0 48.9-1.3 63.8-1.9 6.1-.3 18.4-4.8 23.2-8.4 2.6-1.9 3.9-3.2 5.8-3.2s2.6 1.3 3.2 5.2c.6 5.8 7.1 45.7 9.7 61.2.3 1.9-.3 2.6-1.3 2.9l-6.4 2.3c-1.3.3-1.9-.6-2.9-2.6-4.5-9-16.4-29.6-25.4-36.1-9-5.2-38-5.8-49.6-5.8h-9V451c0 24.5 3.2 30.9 10.9 30.9h18.7c1.3 0 1.9 1.3 1.9 2.9v6.8c0 1.9-.6 3.2-3.2 3.2-3.2 0-13.5-1-48.3-1-32.8 0-46.4 1-50.9 1-1.9 0-2.6-.6-2.6-2.9v-7.4c0-1.9 1-2.6 2.3-2.6h18.4c6.4 0 10.3-3.9 10.6-8.7 1-8.4 1-106.9 1-113.4v-80.4z" fill="#fff"/>
</svg>
