<?xml version="1.0" encoding="UTF-8" standalone="no"?>
<!-- Created with Inkscape (http://www.inkscape.org/) -->
<svg xmlns="http://www.w3.org/2000/svg" xmlns:svg="http://www.w3.org/2000/svg" version="1.1" id="svg2257" width="4279" height="464" viewBox="0 0 4279 464">
  <defs id="defs2261"/>
  <g id="g2263">
    <path style="fill:#ffffff" d="m 170,462.69893 c -1.375,-0.55624 -5.425,-1.40846 -9,-1.89381 -12.50398,-1.69757 -17.63103,-2.84464 -35,-7.83051 C 90.769065,442.86136 77.94274,437.50547 59.020514,425.00599 46.269962,416.58333 29.074778,398.94421 21.29031,386.30168 11.820066,370.92133 4.6306867,350.96358 2.4810424,334.08706 c -0.367795,-2.8875 -1.0764911,-5.25 -1.5748802,-5.25 C 0.407773,328.83706 0,324.56206 0,319.33706 v -9.5 h 57.868647 57.868643 l 8.88136,3.07037 c 14.49056,5.00952 14.38135,4.95254 14.38135,7.5039 0,2.3369 0.23209,3.07511 3.59211,11.42573 4.12524,10.25241 14.54053,21.96187 23.12287,25.99605 4.18845,1.9688 5.78396,2.1038 20.16666,1.7063 8.5901,-0.2374 17.43526,-0.86465 19.65592,-1.39388 11.24757,-2.68052 21.19276,-10.10102 25.56178,-19.07266 1.90938,-3.92085 2.31437,-6.4048 2.35345,-14.43443 0.0316,-6.48144 -0.36743,-10.11373 -1.20279,-10.95 -0.6875,-0.68826 -1.25,-2.01924 -1.25,-2.95775 0,-2.3801 -12.62837,-13.79924 -19.10517,-17.27575 -6.4743,-3.47518 -12.70442,-5.51872 -33.89483,-11.11788 -20.60223,-5.44374 -33.8943,-9.32197 -36.23643,-10.57271 -0.95504,-0.51001 -2.64864,-0.92729 -3.76357,-0.92729 -1.11493,0 -2.80853,-0.40427 -3.76357,-0.89838 -0.95504,-0.4941 -5.11143,-2.10584 -9.23643,-3.58165 -7.49542,-2.68163 -8.86933,-3.20184 -14.5,-5.49015 -1.65,-0.67056 -5.025,-1.88193 -7.5,-2.69194 -2.475,-0.81 -5.918012,-2.11739 -7.651129,-2.90531 -1.733121,-0.78791 -3.440381,-1.43257 -3.793912,-1.43257 -0.748438,0 -20.89317,-9.90841 -24.497271,-12.04926 C 60.809626,238.07643 47.70431,228.41951 42.663176,223.8122 31.094497,213.23908 19.915553,195.30109 16.192692,181.33706 c -7.0620424,-26.48893 -7.0601644,-52.19182 0.0058,-80 0.896386,-3.52772 1.741418,-5.98931 4.806017,-14 1.115064,-2.91472 6.779684,-14.50922 8.794098,-18 C 38.111194,54.93222 52.328481,39.62598 66.521714,29.80123 76.400237,22.96319 93.094941,14.7325 104.5,11.07748 c 16.46264,-5.2758404 26.18082,-7.1317604 51.75,-9.8829104 14.81781,-1.59433998 16.68219,-1.59383998 31.5,0.008 29.13184,3.15018 47.76882,6.78367 59.75,11.6489404 1.1,0.44669 5.6,2.25677 10,4.02242 7.68003,3.08186 13.81187,6.14099 29,14.46786 7.61811,4.17662 22.69632,13.41289 23.5,14.39509 0.275,0.33609 2.3,1.93939 4.5,3.56289 7.97518,5.88533 20.67388,19.78089 26,28.45053 0.55,0.89527 1.93511,2.96843 3.07802,4.60701 3.17436,4.55108 8.92503,17.16839 11.38496,24.97926 1.2125,3.85 2.69999,8.575 3.30552,10.5 2.20451,7.00816 5.08493,31.8775 3.9669,34.25 -0.19439,0.4125 -26.29931,0.75 -58.01093,0.75 h -57.6575 L 236.28348,147.77666 226,142.71675 v -4.45366 c 0,-2.44951 -0.37709,-5.23505 -0.83798,-6.19009 -0.46089,-0.95504 -2.07277,-4.289 -3.58195,-7.40882 -4.33216,-8.95548 -9.23209,-13.62374 -15.55932,-14.82367 -11.03289,-2.09235 -25.30466,-0.30965 -35.72948,4.46299 -13.12558,6.00909 -21.61396,19.27053 -21.7336,33.9545 -0.0763,9.36039 2.87449,16.65747 8.8893,21.98286 5.63393,4.98816 5.37963,4.90309 43.55303,14.57008 19.48168,4.93352 49.11972,14.67358 63,20.70393 1.925,0.83633 5.975,2.64897 9,4.02809 3.025,1.37913 6.4,2.85756 7.5,3.2854 5.61641,2.18448 20.56474,9.36243 26.61299,12.77913 7.32909,4.14025 8.43838,4.84551 16.74862,10.64838 9.43429,6.58776 22.57563,19.21577 26.83708,25.78875 1.53043,2.36057 3.04481,4.51695 3.36529,4.79195 1.31132,1.12521 8.01433,15.9431 9.9519,22 6.5482,20.46983 6.75081,55.35635 0.4472,77 -0.88102,3.025 -1.95344,6.85 -2.38316,8.5 -1.63857,6.29171 -9.63146,22.99294 -12.72008,26.57874 -0.74791,0.86831 -1.35984,1.87566 -1.35984,2.23857 0,1.64146 -14.20099,17.68081 -20.08291,22.68269 -22.1926,18.8722 -47.98371,29.94689 -81.42282,34.96288 -3.30315,0.49548 -7.26995,1.38153 -8.8151,1.969 -3.68106,1.39954 -64.20131,1.33693 -67.67917,-0.07 z m 524,0.0141 c -1.375,-0.56399 -5.425,-1.42255 -9,-1.9079 -9.77766,-1.32744 -16.94319,-2.70624 -22.5,-4.32949 -12.15849,-3.55172 -16.12849,-4.78384 -18,-5.58642 -1.1,-0.47172 -5.15,-2.0862 -9,-3.58772 -3.85,-1.50153 -8.41801,-3.34529 -10.15113,-4.09724 -1.73312,-0.75196 -3.48307,-1.3672 -3.88879,-1.3672 -3.48198,0 -31.995,-16.32797 -40.75846,-23.34032 -7.65007,-6.12143 -20.01847,-18.22108 -24.08667,-23.56329 -8.60541,-11.30034 -10.7542,-14.28162 -12.53495,-17.39131 -7.31095,-12.76695 -8.98973,-15.9939 -11.55187,-22.20508 -1.58815,-3.85 -3.25667,-7.4275 -3.70783,-7.95 -0.45117,-0.5225 -0.8203,-1.91 -0.8203,-3.08333 0,-1.17334 -0.3218,-2.45514 -0.71512,-2.84845 -0.39331,-0.39332 -1.30956,-2.83082 -2.0361,-5.41667 -0.72655,-2.58585 -1.79226,-6.27655 -2.36826,-8.20155 -1.14711,-3.83363 -2.12158,-8.80619 -3.82143,-19.5 -0.61199,-3.85 -1.63312,-8.575 -2.26918,-10.5 -0.84628,-2.56118 -1.25859,-41.92469 -1.53713,-146.75 L 514.87214,7.8370596 h 57.16167 57.16166 l 7.90227,5.5688704 7.90226,5.56888 0.003,133.68113 c 0.003,143.76528 -0.0906,140.86145 5.1401,158.68112 4.12816,14.0635 11.21135,25.8425 21.22529,35.2966 6.39148,6.03416 9.38863,7.50023 19.75358,9.66258 9.29667,1.93949 31.05392,2.0272 39.97273,0.16115 28.11439,-5.8823 44.65541,-19.81393 55.94596,-47.12033 0.45482,-1.1 1.27766,-3.575 1.82853,-5.5 C 795.0721,282.16172 795,284.09833 795,139.16299 V 7.8370596 h 56.09563 56.09563 l 3.15437,2.2214104 c 1.7349,1.22178 4.84187,3.76907 6.90437,5.66064 l 3.75,3.43921 v 124.60644 c 0,118.50008 -0.49724,145.38554 -3.04371,164.5723 -1.26024,9.49544 -5.72422,30.27175 -7.03372,32.73643 -0.50741,0.95504 -0.92257,2.64864 -0.92257,3.76357 0,1.11493 -0.4038,2.80853 -0.89734,3.76357 -0.78359,1.5163 -1.74204,3.90816 -5.10364,12.73643 -1.74293,4.57728 -9.32618,19.19471 -12.05706,23.2411 C 890.32388,386.9757 889,389.1873 889,389.49284 c 0,0.30553 -1.0125,1.80141 -2.25,3.32417 -1.2375,1.52276 -3.13073,4.06272 -4.20718,5.64435 -4.33463,6.36888 -24.61123,25.48374 -34.06798,32.11607 -19.7287,13.83637 -45.28691,24.24926 -71.47484,29.12017 -3.025,0.56264 -8.2,1.57314 -11.5,2.24555 -7.76116,1.58142 -67.94171,2.22941 -71.5,0.76987 z m 2056,-0.43883 c -1.925,-0.72833 -5.2681,-1.34964 -7.429,-1.38069 -2.161,-0.031 -5.311,-0.47136 -7,-0.97849 -1.6891,-0.50712 -5.976,-1.44387 -9.5266,-2.08167 -3.5506,-0.63779 -8.2756,-1.73892 -10.5,-2.44695 -2.2244,-0.70803 -6.7444,-2.07864 -10.0444,-3.04579 -5.2218,-1.53039 -8.3591,-2.66456 -18,-6.50709 -2.2343,-0.89051 -10.1598,-4.35635 -15.5,-6.77817 -1.925,-0.873 -5.75,-2.99411 -8.5,-4.71357 -2.75,-1.71947 -5.675,-3.39393 -6.5,-3.72103 -2.6336,-1.04417 -20.7011,-14.28342 -27.0076,-19.79029 -6.0323,-5.26746 -14.9567,-14.3162 -22.6775,-22.9934 C 2602.5477,382.47934 2592,367.49357 2592,366.0783 c 0,-0.54799 -0.5869,-1.48345 -1.3043,-2.0788 -2.0357,-1.68951 -13.2141,-24.6409 -16.6387,-34.16244 -0.6924,-1.925 -1.6112,-4.4 -2.0418,-5.5 -0.4306,-1.1 -1.5732,-4.7 -2.5391,-8 -0.966,-3.3 -2.1153,-6.9 -2.5542,-8 -0.4388,-1.1 -1.0061,-3.575 -1.2607,-5.5 -0.2545,-1.925 -1.2214,-6.65 -2.1485,-10.5 -2.8265,-11.73718 -3.553,-19.92864 -4.1684,-47 -0.7072,-31.11102 1.0391,-51.56097 5.7274,-67.071 0.5106,-1.68905 0.9283,-3.9071 0.9283,-4.929 0,-2.03987 0.2742,-2.96858 5.6087,-19 8.1605,-24.52363 24.2897,-54.92712 39.2574,-74 4.1061,-5.23231 18.1775,-19.82265 24.1517,-25.04249 24.5702,-21.46759 55.2655,-37.04624 90.4822,-45.9219604 14.9231,-3.76108 27.0776,-5.70863 50.75,-8.13179 15.7891,-1.61620998 17.7109,-1.61706998 33.5,-0.015 24.2768,2.46335 44.6404,5.9796 55.25,9.5402404 1.375,0.46146 4.525,1.41397 7,2.1167 7.337,2.08319 23.7882,8.94611 32.9541,13.7474 31.2651,16.37728 53.8205,36.98954 73.3113,66.99543 7.8435,12.07502 16.6102,29.95244 19.7188,40.21144 0.75,2.475 1.7353,4.9275 2.1897,5.45 0.4543,0.5225 0.8261,1.95844 0.8261,3.19098 0,1.23254 0.45,2.5191 1,2.85902 2.1135,1.30624 0.8263,4.40542 -3.4777,8.37264 l -4.4776,4.12736 h -62.3388 -62.3388 l -5.3865,-7.75 c -19.8078,-28.49901 -50.6928,-41.59228 -90.168,-38.22554 -24.4538,2.08561 -40.3045,7.20715 -56.5379,18.26808 -18.0044,12.26761 -27.7254,27.40719 -34.4852,53.70746 -4.1583,16.17874 -5.3396,56.51681 -2.2989,78.5 2.6369,19.06367 9.8901,38.76699 19.3262,52.5 5.3709,7.81661 14.8415,17.82772 21.6832,22.92074 5.4459,4.05393 22.7533,13.07926 25.0814,13.07926 0.7952,0 2.2271,0.40787 3.1822,0.90639 10.3022,5.3776 47.3784,8.00763 64.2364,4.55666 14.3306,-2.9336 22.9102,-6.1641 32.5,-12.23728 8.25,-5.22472 11.7038,-8.28875 15.4718,-13.72577 4.7042,-6.78795 11.1796,-19.66318 10.6211,-21.1185 -0.4397,-1.14572 -7.8743,-1.3815 -43.5615,-1.3815 H 2786 V 257.9871 208.13714 l 3.0063,-4.15004 3.0062,-4.15004 H 2900.0063 3008 v 27.95915 c 0,15.37754 -0.4545,31.46504 -1.0099,35.75 -2.991,23.07388 -2.8886,22.54982 -10.1161,51.79085 -0.5438,2.2 -1.4129,4.4275 -1.9313,4.95 -0.5185,0.5225 -0.9427,1.95844 -0.9427,3.19098 0,1.23254 -0.45,2.5191 -1,2.85902 -0.55,0.33992 -1,1.49758 -1,2.57259 0,1.075 -0.4357,2.73594 -0.9683,3.69098 -0.5325,0.95504 -3.459,6.91143 -6.5032,13.23643 -5.9585,12.38003 -9.9064,19.56523 -12.1311,22.07874 -0.7686,0.86831 -1.3974,2.00156 -1.3974,2.51833 0,0.51678 -1.6875,3.02141 -3.75,5.56585 -2.0625,2.54444 -5.7146,7.12968 -8.1157,10.18943 -2.4012,3.05974 -8.9262,9.99162 -14.5,15.40417 -25.1302,24.40291 -57.8858,44.27551 -86.1343,52.25706 -1.65,0.46621 -5.475,1.57618 -8.5,2.46661 -5.8536,1.72306 -12.7551,3.08816 -22.5,4.45047 -3.3,0.46133 -7.2668,1.34065 -8.8151,1.95406 -4.2596,1.68755 -64.0719,1.29778 -68.6849,-0.44759 z m -1658.5,-7.29733 -5,-2.79433 -0.2522,-222.17274 -0.2522,-222.1727404 108.2522,0.008 c 90.829,0.007 109.9422,0.24959 118.7522,1.50747 13.0745,1.8667404 17.8961,2.8120004 25.5,4.9992204 3.3,0.94923 7.0191,1.9504 8.2648,2.22483 1.2456,0.27444 2.5097,0.89524 2.809,1.37957 0.2993,0.48433 1.1688,0.8806 1.9322,0.8806 2.4576,0 16.7448,7.23386 25.494,12.90803 9.4085,6.10173 24.326,20.33174 31.0218,29.59197 2.3861,3.3 4.6079,6.225 4.9374,6.5 3.6904,3.08027 19.0408,30.38043 19.0408,33.86344 0,0.95511 0.3705,2.16406 0.8233,2.68656 1.3175,1.52028 4.8834,14.24692 7.1309,25.45 3.9908,19.8926 3.9908,51.1074 0,71 -2.1313,10.62375 -5.8677,23.90547 -7.1596,25.45 -0.437,0.5225 -0.7946,1.57016 -0.7946,2.32813 0,1.95618 -6.7154,15.70141 -10.8568,22.22187 -18.1053,28.50611 -47.3939,48.32108 -82.6432,55.91151 -2.75,0.59218 -7.25,1.59605 -10,2.23083 -3.4486,0.79605 -28.2708,1.28267 -80,1.56836 -41.25,0.22781 -75.3523,0.76085 -75.7828,1.18453 -1.1839,1.16504 0.046,3.49521 2.7116,5.13748 1.3099,0.80701 6.3131,5.06729 11.1183,9.46729 9.5888,8.78013 10.7449,9.81143 17.7029,15.79128 l 4.75,4.08225 v 55.81324 55.81323 l -56.25,-0.0329 -56.25,-0.0329 -5,-2.79434 z m 193.6394,-252.58181 c 9.2616,-1.96306 14.7629,-4.70203 21.1276,-10.51904 14.9255,-13.64106 18.8396,-39.38526 9.2122,-60.59173 -2.5875,-5.69975 -9.4286,-9.77533 -20.1866,-12.02619 -9.3756,-1.96162 -122.3012,-2.11958 -122.2773,-0.17104 0.021,1.70802 0.9895,2.93875 4.3326,5.5054 3.1612,2.42698 15.6552,13.57864 25.3499,22.62621 l 6.3022,5.88161 v 24.16839 c 0,17.4643 0.3329,24.50126 1.2,25.36839 1.8436,1.84359 66.0784,1.63616 74.9394,-0.242 z M 1592.5889,454.76033 1590,451.68361 V 229.76033 7.8370596 h 144.7817 144.7817 l 1.2631,4.2778704 c 0.9457,3.20294 1.2573,16.96031 1.2403,54.75 l -0.023,50.47213 -86.7719,0.5 -86.772,0.5 -0.266,27.8782 c -0.1884,19.73262 0.067,28.27903 0.8724,29.25 0.9455,1.13922 13.3823,1.3718 73.356,1.3718 h 72.2175 l 1.2019,3.75 c 0.8858,2.76372 1.1251,16.63734 0.9101,52.75 l -0.2919,49 -74.2633,0.25641 -74.2633,0.25641 0.2633,33.74359 0.2633,33.74359 85.8034,0.25559 85.8033,0.2556 1.4467,3.46229 c 1.1967,2.86427 1.4466,12.1039 1.4466,53.4944 v 50.03212 h -143.9111 -143.9111 l -2.5889,-3.07673 z M 2065,232.83706 V 7.8370596 l 91.75,-0.20853 c 119.5067,-0.27161 123.8243,-0.17289 143.75,3.2868204 14.9898,2.60268 34.2119,9.36317 45.4423,15.98224 17.3102,10.20239 32.9708,25.11644 43.514,41.43947 3.6092,5.5877 10.5437,19.68162 10.5437,21.42923 0,0.95559 0.3084,2.04584 0.6853,2.42277 2.4841,2.48403 5.7336,14.87651 9.2165,35.148 4.776,27.79728 1.2181,64.30236 -8.869,91 -0.4156,1.1 -1.3299,3.8 -2.0317,6 -0.7018,2.2 -2.3392,6.22172 -3.6386,8.93715 -1.2994,2.71544 -2.3625,5.32455 -2.3625,5.79804 0,0.47349 -1.575,3.323 -3.5,6.33226 -1.925,3.00926 -3.5,5.70664 -3.5,5.99417 0,0.28754 -0.446,1.0663 -0.9911,1.73059 -0.5451,0.66428 -3.8863,4.81913 -7.4249,9.23299 -6.8911,8.59563 -21.0266,21.61778 -25.7221,23.69623 -2.1193,0.93809 -2.8619,1.96026 -2.8619,3.93935 0,1.4699 0.3665,2.82255 0.8145,3.00589 0.4479,0.18333 2.7334,4.15833 5.0789,8.83333 2.3455,4.675 5.4973,10.75 7.004,13.5 1.5067,2.75 5.0191,9.275 7.8053,14.5 2.7862,5.225 6.7455,12.65 8.7984,16.5 12.4834,23.41115 15.6488,29.31501 22.7863,42.5 1.6375,3.025 5.5468,10.45 8.6873,16.5 3.1404,6.05 7.8716,15.05 10.5137,20 2.642,4.95 6.5552,12.29612 8.6958,16.32472 2.1407,4.02859 4.3855,8.11461 4.9884,9.08005 0.8428,1.34956 0.6918,2.37252 -0.6532,4.42528 l -1.7494,2.66995 h -63.2992 -63.2993 l -2.8894,-4.75 c -1.5892,-2.6125 -5.2669,-9.475 -8.1727,-15.25 -2.9058,-5.775 -6.5125,-12.75 -8.0148,-15.5 -1.5023,-2.75 -5.0111,-9.275 -7.7973,-14.5 -2.7862,-5.225 -6.7455,-12.65 -8.7984,-16.5 -2.0529,-3.85 -5.7491,-10.825 -8.2138,-15.5 -2.4647,-4.675 -4.8871,-8.9275 -5.3832,-9.45 -0.496,-0.5225 -0.9019,-1.7225 -0.9019,-2.66667 0,-0.94416 -0.3375,-1.86666 -0.75,-2.05 -0.4125,-0.18333 -2.3662,-3.48333 -4.3414,-7.33333 -3.9995,-7.79522 -12.7988,-24.32976 -17.0297,-32 -1.5169,-2.75 -3.5115,-6.4625 -4.4324,-8.25 -0.9209,-1.7875 -1.9606,-3.25934 -2.3104,-3.27075 -1.1472,-0.0374 -74.6044,-0.0522 -75.8861,-0.0153 -1.9022,0.0548 -1.4994,1.60263 1,3.8424 1.2375,1.10896 5.175,4.69316 8.75,7.96488 3.575,3.27172 8.2997,7.47411 10.4994,9.33866 2.1997,1.86454 4.5622,3.92043 5.25,4.56864 0.9738,0.91773 1.2506,14.4734 1.2506,61.25 v 60.07143 h -56 -56 v -225 z m 203,-33.10347 c 3.575,-1.13494 8.8762,-3.8509 11.7805,-6.03546 5.0877,-3.82688 12.1435,-12.19188 12.1947,-14.45743 0.014,-0.603 0.7609,-2.57182 1.6605,-4.37517 1.3351,-2.67621 1.5289,-5.23145 1.0546,-13.90363 -0.3196,-5.84366 -1.1686,-12.19984 -1.8866,-14.12484 -4.0966,-10.98345 -11.4547,-19.71626 -20.1656,-23.93313 -9.8768,-4.78127 -12.7591,-4.99332 -68.3881,-5.03125 -45.8955,-0.0313 -52.25,0.14761 -52.25,1.47099 0,0.82864 1.211,2.51614 2.691,3.75 1.4801,1.23387 5.4255,4.71839 8.7677,7.74339 3.3421,3.025 7.7561,6.94875 9.8089,8.71945 l 3.7324,3.21945 v 28.98086 c 0,24.0594 0.2423,29.11666 1.4268,29.78055 0.7847,0.43983 19.7972,0.67821 42.25,0.52973 38.0471,-0.25161 41.2652,-0.4103 47.3232,-2.33351 z m 897,38.04709 V 17.72429 l 5.1561,-4.94362 5.1561,-4.9436104 H 3232.1561 3289 V 229.82266 451.80827 l -5.9715,3.01439 -5.9715,3.0144 H 3221.0285 3165 Z m 278,0.63644 V 18.94999 l 4.0382,-3.30647 c 2.221,-1.81855 5.2585,-4.31841 6.75,-5.55524 l 2.7118,-2.2487804 92.5,-0.206 c 121.2635,-0.27006 127.3048,-0.13302 145,3.2890904 10.4833,2.02738 24.6726,6.36798 33,10.09493 2.475,1.10769 6.075,2.72514 8,3.59433 1.925,0.8692 4.8437,2.51295 6.4859,3.65278 1.6423,1.13984 4.0122,2.6121 5.2666,3.2717 4.1379,2.17597 16.95,13.15866 22.7879,19.53413 5.2565,5.74056 18.4596,24.67419 18.4596,26.47162 0,0.4198 1.2048,3.24541 2.6774,6.27913 5.6136,11.5649 7.515,17.88304 12.3438,41.01585 1.782,8.53677 2.4078,38.0492 1.0496,49.5 -1.147,9.67002 -2.2514,16.74688 -3.5892,23 -1.1758,5.49542 -5.7593,19.98651 -6.6265,20.95 -0.4703,0.5225 -0.8551,1.6808 -0.8551,2.574 0,2.54152 -7.6268,16.66061 -13.7615,25.476 -7.9318,11.39766 -18.9801,22.36052 -30.3833,30.14838 -9.1748,6.26597 -11.5923,9.16002 -8.9933,10.76629 0.4741,0.29299 2.5497,3.80705 4.6124,7.80902 2.0628,4.00197 4.9899,9.52631 6.5047,12.27631 1.5148,2.75 4.9099,9.05 7.5446,14 2.6347,4.95 6.1235,11.475 7.753,14.5 1.6294,3.025 4.8672,9.1 7.1951,13.5 2.3278,4.4 6.1729,11.6 8.5446,16 2.3716,4.4 6.6389,12.5 9.4827,18 2.8439,5.5 7.1163,13.6 9.4942,18 7.3875,13.66947 10.0785,18.69752 14.9858,28 6.3889,12.11123 10.0823,18.73937 11.2973,20.27417 1.3804,1.74371 1.0609,1.94763 -8.2866,5.28853 l -8.2183,2.9373 h -63.7632 c -49.804,0 -63.985,-0.27366 -64.7758,-1.25 -0.9973,-1.23128 -4.6857,-8.07606 -15.4922,-28.75 -3.0186,-5.775 -7.1726,-13.65 -9.2311,-17.5 -2.0585,-3.85 -5.7858,-10.825 -8.2829,-15.5 -2.4971,-4.675 -5.8733,-10.975 -7.5028,-14 -1.6294,-3.025 -4.8672,-9.1 -7.1951,-13.5 -2.3278,-4.4 -6.1546,-11.6 -8.5039,-16 -6.2195,-11.64837 -16.0032,-30.34541 -18.4267,-35.21418 -1.1537,-2.3178 -2.7255,-4.46623 -3.4928,-4.77429 -1.0395,-0.41735 -52.6015,-0.89331 -60.8549,-0.56175 -2.7041,0.10863 -1.7072,1.53045 5.644,8.05022 13.9373,12.36097 18.8099,16.70117 19.8841,17.71166 1.0202,0.95971 1.2987,13.02004 1.3389,58 l 0.051,56.78834 -5.834,3 -5.8339,3 -57.75,0.27359 -57.75,0.2736 V 238.41712 Z m 216.1555,-38.16048 c 2.9459,-1.5234 9.8445,-11.12715 9.8445,-13.70488 0,-0.75975 0.3218,-1.70317 0.7151,-2.09648 2.9291,-2.92913 4.3701,-24.89908 2.1646,-33.0022 -3.4762,-12.77151 -11.7123,-23.83555 -21.1905,-28.46653 -9.6231,-4.70178 -15.0082,-5.14949 -61.9388,-5.14949 -37.6977,0 -43.7504,0.20207 -43.7504,1.46057 0,0.80332 0.5625,1.93666 1.25,2.51854 0.6875,0.58188 2.1991,1.83712 3.3591,2.78943 1.1599,0.9523 5.8296,5.10646 10.377,9.23146 4.5474,4.125 8.7117,7.78302 9.254,8.12893 0.6152,0.39233 0.9386,11.30176 0.8597,29 -0.07,15.60409 0.2171,28.8661 0.6369,29.47113 0.4198,0.60503 1.3238,1.28003 2.0089,1.5 0.685,0.21997 19.7481,0.27284 42.3624,0.11749 34.3838,-0.2362 41.5967,-0.53063 44.0475,-1.79797 z M 3966.5,238.43386 V 19.03079 l 4,-2.52438 c 2.2,-1.38841 6.6332,-3.907 9.8515,-5.59687 l 5.8516,-3.0724804 h 56.8956 56.8956 l 0.2528,171.2500004 0.2529,171.25 87.75,0.25546 87.75,0.25546 v 50.33448 50.33448 l -3.75,1.13954 c -18.6827,5.67724 -3.1895,5.18059 -161.6053,5.18051 l -144.1447,-7e-5 z" id="path2342"/>
  </g>
</svg>
