<?xml version="1.0" encoding="utf-8"?>
<!-- Generator: Adobe Illustrator 24.1.2, SVG Export Plug-In . SVG Version: 6.00 Build 0)  -->
<svg xmlns="http://www.w3.org/2000/svg" xmlns:xlink="http://www.w3.org/1999/xlink" version="1.1" x="0px" y="0px" width="1800px" height="335.2px" viewBox="0 0 1800 335.2" style="enable-background:new 0 0 1800 335.2;" xml:space="preserve">
<style type="text/css">
	.st0{fill:#FFFFFF;}
</style>
<g>
	<path class="st0" d="M212.4,121l-2.2,11.4c-0.9,4.5-5.2,8.2-9.8,8.2H91c-4.5,0-7.5-3.7-6.6-8.2l2.2-11.4c0.9-4.5,5.2-8.2,9.8-8.2   h109.4C210.3,112.8,213.2,116.5,212.4,121z M36.6,277.7L67,121c0.9-4.5-2.1-8.2-6.6-8.2H45.8c-4.5,0-8.9,3.7-9.8,8.2L0.2,305.5   c-0.9,4.5,2.1,8.2,6.6,8.2h160c4.5,0,8.9-3.7,9.8-8.2l2.2-11.4c0.9-4.5-2.1-8.2-6.6-8.2h-129C38.6,285.9,35.7,282.2,36.6,277.7z    M952.7,285.9L984.7,121c0.9-4.5-2.1-8.2-6.6-8.2h-14.7c-4.5,0-8.9,3.7-9.8,8.2l-35.9,184.5c-0.9,4.5,2.1,8.2,6.6,8.2h151.9   c4.5,0,8.9-3.7,9.8-8.2l2.2-11.4c0.9-4.5-2.1-8.2-6.6-8.2H952.7z M178.5,194.5h-98c-4.5,0-8.9,3.7-9.8,8.2l-2.2,11.4   c-0.9,4.5,2.1,8.2,6.6,8.2h98c4.5,0,8.9-3.7,9.8-8.2l2.2-11.4C185.9,198.1,183,194.5,178.5,194.5z M1581.8,140.6   c4.5,0,8.9-3.7,9.8-8.2l2.2-11.4c0.9-4.5-2.1-8.2-6.6-8.2H1437h-9.8c-4.5,0-8.9,3.7-9.8,8.2l-35.9,184.5c-0.9,4.5,2.1,8.2,6.6,8.2   h160c4.5,0,8.9-3.7,9.8-8.2l2.2-11.4c0.9-4.5-2.1-8.2-6.6-8.2h-137.2l28.2-145.3H1581.8z M1559.9,194.5h-98c-4.5,0-8.9,3.7-9.8,8.2   l-2.2,11.4c-0.9,4.5,2.1,8.2,6.6,8.2h98c4.5,0,8.9-3.7,9.8-8.2l2.2-11.4C1567.3,198.1,1564.4,194.5,1559.9,194.5z M437.7,309.5   l-15.4-19.1c0.5-1.5,1-3,1.3-4.5l28.2-145.3c3-15.3-7-27.8-22.4-27.8H274.4c-15.3,0-30.2,12.4-33.2,27.8L213,285.9   c-3,15.3,7,27.8,22.4,27.8h119.3c3.3,0,5.7-3.9,3.8-6.2l-17.3-21.5h-95.5l28.2-145.3h145.3l-22.9,117.6l-15.7-19.5   c-2.6-3.2-7.7-3.2-11.5,0l-14,11.7c-3.8,3.2-4.8,8.4-2.2,11.5l57.1,70.9c2.6,3.2,7.7,3.2,11.5,0l14-11.7   C439.3,317.9,440.3,312.7,437.7,309.5z M494.9,121l-33.2,170.7c-2.4,12.1,5.6,22,17.7,22h148.7c12.1,0,23.9-9.8,26.2-22L687.5,121   c0.9-4.5-2.1-8.2-6.6-8.2h-16.3c-4.5,0-8.9,3.7-9.8,8.2l-32.1,164.9H495.5L527.5,121c0.9-4.5-2.1-8.2-6.6-8.2h-16.3   C500.1,112.8,495.7,116.5,494.9,121z M1141.5,305.5l35.9-184.5c0.9-4.5-2.1-8.2-6.6-8.2h-16.3c-4.5,0-8.9,3.7-9.8,8.2l-35.9,184.5   c-0.9,4.5,2.1,8.2,6.6,8.2h16.3C1136.3,313.7,1140.6,310,1141.5,305.5z M897.7,306.5l-56.2-186.2c-1.4-4.6-5.5-7.4-10.6-7.4h-19.3   c-5.1,0-10.3,2.9-13.4,7.4L669.7,306.5c-2.3,3.3-0.6,7.2,3.1,7.2h23.1c1.9,0,3.9-1.1,5-2.8l117-172.5l27.2,100h-72.8l-14.7,19   c-2.4,3-1,6.9,2.5,6.9h92.1l12.6,46.5c0.5,1.8,2,2.9,4,2.9h23.1C895.6,313.7,898.7,309.8,897.7,306.5z M1169.3,305.5L1169.3,305.5   c-0.9,4.5,2.1,8.1,6.6,8.1h166.6c4.5,0,8.9-3.7,9.8-8.2l2.2-11.4c0.9-4.5-2.1-8.2-6.6-8.2h-155.1   C1181.9,285.9,1171.4,294.7,1169.3,305.5z M1216.6,121l-2.2,11.4c-0.9,4.5,2.1,8.2,6.6,8.2h142c10.8,0,21.3-8.8,23.4-19.6v0   c0.9-4.5-2.1-8.1-6.6-8.1h-153.5C1221.8,112.8,1217.5,116.5,1216.6,121z M1214.8,266.3h29.1l102.2-99.9c1.9-1.8,1.1-4.6-1.3-4.6   h-33.3l-98.9,96.7C1209.4,261.6,1210.7,266.3,1214.8,266.3z M1782,308.4l-41.2-73.5c28-6.9,52.4-31.2,58-60v0   c6.7-34.3-15.7-62-50-62h-118.3c-3.2,0-6.3,2.6-6.9,5.8l-37.9,195.1h31l33.6-173.1h89.8c18.9,0,31.3,15.4,27.6,34.3v0   c-3.7,18.9-22,34.3-41,34.3h-62c-4.5,0-8.9,3.7-9.8,8.2l-2.2,11.4c-0.9,4.5,2.1,8.2,6.6,8.2h45.3l40.3,72.6   c1.4,2.6,4.2,4.1,7.5,4.1h25.8C1781,313.7,1783.2,310.6,1782,308.4z"/>
	<path class="st0" d="M370.5,67.9c2.2,0,3.6,1.8,3.2,3.9l-1.2,6.2c-0.4,2.2-2.5,3.9-4.7,3.9h-63.6c-2.2,0-3.6-1.8-3.2-3.9l14.4-74.1   c0.4-2.2,2.5-3.9,4.7-3.9h63.6c2.2,0,3.6,1.8,3.2,3.9l-1.1,5.6c-0.4,2.2-2.5,3.9-4.7,3.9h-52.4l-3.1,16.2l-0.6,2.9l-2.7,13.7   l-1.3,6.8l-2.9,14.8H370.5z M375,42.4l1.1-5.9c0.4-2.2-1-3.9-3.2-3.9h-40.3c-2.2,0-4.3,1.8-4.7,3.9l-1.1,5.9   c-0.4,2.2,1,3.9,3.2,3.9h40.3C372.5,46.3,374.6,44.5,375,42.4z M292.2,0H285c-2.2,0-4.3,1.8-4.7,3.9l-5.6,28.6h-43.5   c-2.1,0-4.2,1.8-4.6,3.9l-1.1,5.9c-0.4,2.2,1,3.9,3.1,3.9H272L265.9,78c-0.4,2.2,1,3.9,3.2,3.9h7.3c2.2,0,4.3-1.8,4.7-3.9   l14.4-74.1C295.8,1.8,294.4,0,292.2,0z M201.5,81.9h7.3c2.2,0,4.3-1.8,4.7-3.9l14.4-74.1c0.4-2.2-1-3.9-3.2-3.9h-7.3   c-2.2,0-4.3,1.8-4.7,3.9L198.3,78C197.9,80.2,199.3,81.9,201.5,81.9z M140.7,81.9h7.3c2.2,0,4.3-1.8,4.7-3.9l10.7-55.2   c0.4-2.2-1-3.9-3.2-3.9h-7.3c-2.2,0-4.3,1.8-4.7,3.9L137.5,78C137.1,80.2,138.5,81.9,140.7,81.9z M119.2,3.9l-1.3,6.6   c-0.4,2.2,1,3.9,3.2,3.9h72.4c2.2,0,4.3-1.8,4.7-3.9l1.3-6.6c0.4-2.2-1-3.9-3.2-3.9h-72.4C121.7,0,119.6,1.8,119.2,3.9z"/>
</g>
</svg>
