<?xml version="1.0"?>
<svg xmlns="http://www.w3.org/2000/svg" width="2000" height="213.6" xml:space="preserve">
  <path d="M83.2 18.6C33.2 18.6 0 54.8 0 99.5s35.5 80.9 83.2 80.9 83.2-36.2 83.2-80.9-33.2-80.9-83.2-80.9zm0 144.2c-39 0-65.2-28.4-65.2-63.3s27.3-64 65.2-64 65.2 29 65.2 64-26.2 63.3-65.2 63.3zM345 20.9v97.9c0 24.3-19.7 44-44 44h-12.3c-24.8 0-44.9-20.1-44.9-44.9v-97h-18v98.5c0 33.6 27.3 60.9 60.9 60.9h15.5c33.6 0 60.9-27.3 60.9-60.9V20.9H345zm213.5 0H415.9v16.3h62.9V178h17.4V37.2h62.3zm72.7 140.2v-53.5h66.3V90.8h-66.3V37.2h102.9V20.9H613.7V178h121.6v-16.9zm259.9-48.2c19.8-5.4 34.4-23.6 34.4-45.2 0-25.9-21-46.8-46.8-46.8h-86.4V178h17.5v-63.4h62.4L915 178h19.2v-1.7l-43.1-63.4zm-81.3-75.1h67.8c16.7 0 30.2 13.7 30 30.5-.3 16.4-14 29.4-30.4 29.4h-67.3V37.8zm1086.1 123.3v-53.5h66.3V90.8h-66.3V37.2h102.9V20.9h-120.4V178H2000v-16.9zm-748.2-48.2c19.8-5.4 34.4-23.6 34.4-45.2 0-25.9-21-46.8-46.8-46.8h-86.4V178h17.5v-63.4h62.4l42.8 63.4h19.2v-1.7l-43.1-63.4zm-81.4-75.1h67.8c16.7 0 30.2 13.7 30 30.5-.3 16.4-14 29.4-30.4 29.4h-67.3V37.8zM1410 202.2c-16.3-5.7-22.6-13.8-25.1-20.4 21.9-19 35.7-47 35.7-78.2C1420.6 46.4 1374.2 0 1317 0s-103.5 46.4-103.5 103.5c0 31.2 13.8 59.2 35.7 78.2-2.4 6.6-8.8 14.7-25.1 20.4-1.3.4-1.3 4.4-.1 6.7 1.7 3.5 5.7 5.8 10.1 4.3 16.2-5.9 23.2-13.7 27.4-22.2 16.1 10.2 35.1 16.2 55.6 16.2s39.5-5.9 55.6-16.2c4.2 8.4 11.2 16.2 27.4 22.2 4.3 1.6 8.3-.8 10.1-4.3 1.1-2.3 1.1-6.2-.2-6.6zm-4.5-98.1c0 23.4-8.8 45.9-23.8 61.6l-50.5-148.4c42.1 6.8 74.3 43.1 74.3 86.8zm-113.6-8.7 25.2-69.6 25.2 69.6h-50.4zm-63.3 8.7c0-43.8 32.2-80 74.4-86.7l-50.5 148.4c-15.1-15.8-23.9-38.3-23.9-61.7zm38.1 72.3c.2-1.7.3-3.4.3-4.8l20.5-60.3.1-.2h58.7l.1.2 20.5 60.3c0 1.4.1 3 .3 4.8-14.3 9.8-31.6 15.6-50.3 15.6-18.6 0-35.9-5.8-50.2-15.6zm477.3-81v16.3h51.2v29.9c-12.6 13-31.5 21.2-56.4 21.2-39 0-65.2-28.4-65.2-63.3s27.3-64 65.2-64c25.1 0 44.8 12.8 55.3 31.7l15.4-8.8c-12.7-23.8-37.2-39.7-70.6-39.7-50 0-83.2 36.2-83.2 80.9s35.5 80.9 83.2 80.9c36.1 0 54.7-11.1 72.7-29.1v-56H1744zm-290.2-74.5h16.8l104.7 128v-128h18.1V178h-16.3L1471.8 49.4V178h-18z" fill="#fff"/>
</svg>
